<svg width="229" height="21" viewBox="0 0 229 21" fill="none" xmlns="http://www.w3.org/2000/svg">
<path d="M0 17.64V0.36H2.508V7.812H11.148V0.36H13.668V17.64H11.148V10.176H2.508V17.64H0Z" fill="#C35EB9"/>
<path d="M15.8391 17.64L21.4551 0.36H25.0671L30.6831 17.64H28.0791L22.9071 1.872H23.5551L18.4431 17.64H15.8391ZM18.7551 13.74V11.388H27.7791V13.74H18.7551Z" fill="#C35EB9"/>
<path d="M38.2832 18C37.0832 18 36.0392 17.824 35.1512 17.472C34.2632 17.12 33.5192 16.664 32.9192 16.104C32.3272 15.536 31.8752 14.932 31.5632 14.292L33.7472 12.876C33.9392 13.348 34.2272 13.792 34.6112 14.208C35.0032 14.624 35.5072 14.964 36.1232 15.228C36.7472 15.484 37.5032 15.612 38.3912 15.612C39.2792 15.612 40.0112 15.48 40.5872 15.216C41.1632 14.944 41.5912 14.584 41.8712 14.136C42.1592 13.68 42.3032 13.168 42.3032 12.6C42.3032 11.936 42.1272 11.424 41.7752 11.064C41.4312 10.696 40.9712 10.44 40.3952 10.296C39.8192 10.144 39.1952 10.056 38.5232 10.032C37.9632 10.016 37.5592 10.004 37.3112 9.996C37.0632 9.98 36.8952 9.972 36.8072 9.972C36.7272 9.972 36.6512 9.972 36.5792 9.972V7.596C36.6672 7.596 36.8192 7.596 37.0352 7.596C37.2592 7.596 37.4912 7.596 37.7312 7.596C37.9712 7.588 38.1672 7.58 38.3192 7.572C39.3112 7.524 40.1112 7.28 40.7192 6.84C41.3352 6.4 41.6432 5.776 41.6432 4.968C41.6432 4.16 41.3432 3.524 40.7432 3.06C40.1512 2.596 39.3712 2.364 38.4032 2.364C37.4832 2.364 36.6912 2.576 36.0272 3C35.3632 3.416 34.8512 3.932 34.4912 4.548L32.6432 2.808C33.2192 2.008 34.0072 1.34 35.0072 0.803999C36.0072 0.268 37.1632 0 38.4752 0C39.2192 0 39.9392 0.0999999 40.6352 0.3C41.3312 0.491999 41.9552 0.787999 42.5072 1.188C43.0592 1.588 43.4952 2.096 43.8152 2.712C44.1432 3.32 44.3072 4.044 44.3072 4.884C44.3072 5.724 44.1352 6.484 43.7912 7.164C43.4552 7.844 43.0032 8.384 42.4352 8.784C43.2272 9.08 43.8472 9.548 44.2952 10.188C44.7432 10.82 44.9672 11.628 44.9672 12.612C44.9672 13.716 44.6752 14.672 44.0912 15.48C43.5152 16.28 42.7232 16.9 41.7152 17.34C40.7152 17.78 39.5712 18 38.2832 18Z" fill="#C35EB9"/>
<path d="M47.5312 17.64V0.36H54.3232C55.4193 0.36 56.3393 0.584 57.0833 1.032C57.8273 1.48 58.3873 2.06 58.7633 2.772C59.1393 3.476 59.3273 4.22 59.3273 5.004C59.3273 5.956 59.0913 6.772 58.6193 7.452C58.1553 8.132 57.5273 8.596 56.7353 8.844L56.7113 8.256C57.8153 8.528 58.6633 9.06 59.2553 9.852C59.8473 10.636 60.1432 11.552 60.1432 12.6C60.1432 13.616 59.9393 14.5 59.5312 15.252C59.1312 16.004 58.5433 16.592 57.7673 17.016C56.9992 17.432 56.0673 17.64 54.9713 17.64H47.5312ZM50.0752 15.252H54.5872C55.1553 15.252 55.6633 15.144 56.1113 14.928C56.5673 14.712 56.9233 14.404 57.1793 14.004C57.4433 13.596 57.5753 13.112 57.5753 12.552C57.5753 12.032 57.4592 11.564 57.2272 11.148C57.0033 10.724 56.6753 10.392 56.2433 10.152C55.8193 9.904 55.3193 9.78 54.7433 9.78H50.0752V15.252ZM50.0752 7.416H54.2873C54.7513 7.416 55.1673 7.324 55.5353 7.14C55.9113 6.948 56.2073 6.676 56.4233 6.324C56.6473 5.964 56.7593 5.532 56.7593 5.028C56.7593 4.356 56.5352 3.804 56.0872 3.372C55.6393 2.94 55.0392 2.724 54.2873 2.724H50.0752V7.416Z" fill="#C35EB9"/>
<path d="M61.3312 17.64L66.9473 0.36H70.5592L76.1752 17.64H73.5713L68.3993 1.872H69.0472L63.9352 17.64H61.3312ZM64.2473 13.74V11.388H73.2712V13.74H64.2473Z" fill="#C35EB9"/>
<path d="M78.3281 17.64V0.36H80.8361V7.812H89.4761V0.36H91.9961V17.64H89.4761V10.176H80.8361V17.64H78.3281Z" fill="#C35EB9"/>
<path d="M108.963 17.64H106.419V4.788L97.9112 17.64H95.3672V0.36H97.9112V13.2L106.419 0.36H108.963V17.64Z" fill="#C35EB9"/>
<path d="M112.312 17.64V0.36H123.353V2.724H114.821V7.572H121.912V9.936H114.821V15.276H123.353V17.64H112.312Z" fill="#C35EB9"/>
<path d="M135.844 17.64V0.36H147.112V2.724H138.352V6.888H142.828C142.988 6.888 143.192 6.896 143.44 6.912C143.696 6.92 143.936 6.94 144.16 6.972C145.096 7.084 145.884 7.388 146.524 7.884C147.172 8.38 147.66 9.008 147.988 9.768C148.324 10.528 148.492 11.36 148.492 12.264C148.492 13.168 148.328 14 148 14.76C147.672 15.52 147.184 16.148 146.536 16.644C145.896 17.14 145.104 17.444 144.16 17.556C143.936 17.588 143.7 17.612 143.452 17.628C143.204 17.636 142.996 17.64 142.828 17.64H135.844ZM138.352 15.276H142.732C142.892 15.276 143.068 15.268 143.26 15.252C143.46 15.236 143.648 15.212 143.824 15.18C144.6 15.02 145.144 14.652 145.456 14.076C145.776 13.5 145.936 12.896 145.936 12.264C145.936 11.624 145.776 11.02 145.456 10.452C145.144 9.876 144.6 9.508 143.824 9.348C143.648 9.308 143.46 9.284 143.26 9.276C143.068 9.26 142.892 9.252 142.732 9.252H138.352V15.276Z" fill="#C35EB9"/>
<path d="M150.891 17.64V0.36H157.875C158.043 0.36 158.251 0.368 158.499 0.383999C158.747 0.392 158.983 0.416 159.207 0.456C160.167 0.607999 160.967 0.935999 161.607 1.44C162.255 1.944 162.739 2.58 163.059 3.348C163.379 4.116 163.539 4.964 163.539 5.892C163.539 6.828 163.379 7.68 163.059 8.448C162.739 9.216 162.255 9.852 161.607 10.356C160.967 10.86 160.167 11.188 159.207 11.34C158.983 11.372 158.743 11.396 158.487 11.412C158.239 11.428 158.035 11.436 157.875 11.436H153.399V17.64H150.891ZM153.399 9.06H157.779C157.939 9.06 158.115 9.052 158.307 9.036C158.507 9.02 158.695 8.992 158.871 8.952C159.383 8.832 159.795 8.612 160.107 8.292C160.419 7.964 160.643 7.588 160.779 7.164C160.915 6.74 160.983 6.316 160.983 5.892C160.983 5.468 160.915 5.048 160.779 4.632C160.643 4.208 160.419 3.836 160.107 3.516C159.795 3.188 159.383 2.964 158.871 2.844C158.695 2.796 158.507 2.764 158.307 2.748C158.115 2.732 157.939 2.724 157.779 2.724H153.399V9.06Z" fill="#C35EB9"/>
<path d="M165.938 17.64V0.36H176.977V2.724H168.445V7.572H175.538V9.936H168.445V15.276H176.977V17.64H165.938Z" fill="#C35EB9"/>
<path d="M179.859 17.64V0.36H182.367V7.812H191.007V0.36H193.527V17.64H191.007V10.176H182.367V17.64H179.859Z" fill="#C35EB9"/>
<path d="M196.022 20.52V15.276C196.614 15.276 197.102 15.128 197.486 14.832C197.87 14.528 198.174 14.116 198.398 13.596C198.63 13.068 198.806 12.468 198.926 11.796C199.054 11.124 199.15 10.416 199.214 9.672C199.31 8.664 199.39 7.68 199.454 6.72C199.526 5.752 199.59 4.752 199.646 3.72C199.71 2.688 199.778 1.564 199.85 0.347999L210.914 0.36V15.276H212.198V20.52H209.678V17.64H198.53V20.52H196.022ZM200.138 15.276H208.406V2.724L202.166 2.712C202.11 3.592 202.062 4.428 202.022 5.22C201.982 6.012 201.93 6.812 201.866 7.62C201.81 8.42 201.738 9.28 201.65 10.2C201.562 11.08 201.47 11.828 201.374 12.444C201.278 13.052 201.134 13.58 200.942 14.028C200.758 14.476 200.49 14.892 200.138 15.276Z" fill="#C35EB9"/>
<path d="M213.628 17.64L219.244 0.36H222.856L228.472 17.64H225.868L220.696 1.872H221.344L216.232 17.64H213.628ZM216.544 13.74V11.388H225.568V13.74H216.544Z" fill="#C35EB9"/>
</svg>
