<svg width="308" height="171" viewBox="0 0 308 171" fill="none" xmlns="http://www.w3.org/2000/svg">
<g clip-path="url(#clip0_72_902)">
<path d="M299.285 51.3682L210.52 7.5314C205.073 4.84136 198.476 7.07639 195.786 12.5235L188.701 26.8695C186.011 32.3166 188.246 38.913 193.694 41.6031L282.459 85.4398C287.906 88.1299 294.503 85.8948 297.193 80.4477L304.278 66.1018C306.968 60.6547 304.733 54.0582 299.285 51.3682Z" fill="#E7B9E2" stroke="#303030" stroke-width="2"/>
<path d="M223.083 40.5033L227.334 31.8958L232.391 34.3931L231.897 35.3938L227.916 33.4277L226.625 36.0422L228.271 36.8553C228.816 37.1245 229.236 37.4569 229.532 37.8526C229.834 38.2518 230.001 38.6911 230.032 39.1703C230.063 39.6496 229.951 40.1475 229.696 40.6639C229.444 41.1732 229.119 41.5612 228.719 41.8279C228.32 42.0946 227.868 42.2328 227.364 42.2425C226.87 42.2485 226.351 42.1169 225.806 41.8477L223.083 40.5033ZM224.653 40.0341L226.343 40.8682C226.823 41.1055 227.265 41.1589 227.669 41.0281C228.083 40.8937 228.407 40.5898 228.641 40.1164C228.875 39.6428 228.918 39.2045 228.769 38.8009C228.631 38.3937 228.322 38.0715 227.841 37.8341L226.152 36.9999L224.653 40.0341ZM236.462 42.1718L236.005 43.0971L233.844 42.4048C233.486 42.2992 233.18 42.2953 232.926 42.3932C232.676 42.4839 232.482 42.6691 232.344 42.9488C232.21 43.2214 232.197 43.4916 232.305 43.7594C232.425 44.0235 232.649 44.2371 232.979 44.4C233.309 44.563 233.649 44.6329 234 44.6097C234.35 44.5865 234.67 44.481 234.959 44.2936C235.255 44.1096 235.485 43.8528 235.648 43.5229L236.466 41.8659C236.685 41.4212 236.725 41.0077 236.583 40.6256C236.449 40.247 236.149 39.9426 235.682 39.7124C235.352 39.5494 235.034 39.4633 234.726 39.4541C234.422 39.4377 234.136 39.4928 233.868 39.6194C233.607 39.7494 233.378 39.9527 233.179 40.2292L232.189 39.7403C232.466 39.2703 232.813 38.9197 233.23 38.6887C233.651 38.4504 234.112 38.3391 234.613 38.3545C235.118 38.3628 235.642 38.5015 236.188 38.7707C236.969 39.1568 237.473 39.6552 237.698 40.2659C237.933 40.873 237.869 41.5459 237.504 42.2847L235.384 46.5778L234.383 46.0836L234.691 45.4596L234.39 45.3108C234.094 45.4768 233.765 45.5554 233.404 45.5464C233.049 45.541 232.671 45.4391 232.27 45.2407C231.875 45.0459 231.568 44.8006 231.348 44.5047C231.139 44.2052 231.023 43.8801 231 43.5296C230.977 43.1791 231.056 42.821 231.236 42.4552C231.498 41.9244 231.878 41.5718 232.374 41.3976C232.878 41.227 233.466 41.2456 234.14 41.4534L236.462 42.1718ZM239.991 48.853L242.69 43.3872L240.538 42.3245L241.016 41.3561L246.353 43.9916L245.875 44.96L243.723 43.8973L241.024 49.3631L239.991 48.853ZM248.26 44.9332L249.368 45.4805L248.677 51.2959L249.377 51.6413L248.629 52.45L247.446 51.8654L248.26 44.9332ZM254.21 47.8715L248.079 54.0788C247.727 54.4312 247.358 54.6548 246.972 54.7497C246.586 54.8447 246.217 54.8053 245.866 54.6318C245.349 54.3766 245.018 54.0349 244.873 53.6063C244.724 53.1848 244.765 52.6873 244.994 52.1137L245.941 52.5813C245.893 52.8785 245.894 53.1111 245.945 53.279C245.992 53.4541 246.105 53.5859 246.285 53.6744C246.45 53.7559 246.609 53.7676 246.763 53.7096C246.923 53.6552 247.105 53.5309 247.308 53.3367L253.177 47.3615L254.21 47.8715ZM252.745 55.1516L255.922 48.7175L257.612 49.5517L256.451 54.7201L256.559 54.7733L259.946 50.7047L261.582 51.5124L258.404 57.9466L257.447 57.4736L258.966 54.3964L260.279 51.8194L260.161 51.7609L256.88 55.6947L255.46 54.9932L256.589 49.9968L256.47 49.9384L255.222 52.5473L253.702 55.6245L252.745 55.1516ZM260.526 58.9944L263.704 52.5602L264.726 53.065L262.76 57.0459L261.861 58.7838L261.98 58.8423L267.114 54.2446L268.868 55.1107L265.691 61.5449L264.668 61.0401L266.645 57.0375L267.533 55.3211L267.414 55.2628L262.28 59.8605L260.526 58.9944Z" fill="#303030"/>
<path d="M238.978 65.0821L237.185 64.1965L223.901 91.0952L225.694 91.9808L238.978 65.0821Z" fill="#303030"/>
<path d="M137.537 1.55687L39.7255 16.852C33.7233 17.7906 29.6184 23.4172 30.557 29.4194L33.029 45.2273C33.9675 51.2295 39.5942 55.3344 45.5963 54.3958L143.408 39.1006C149.41 38.162 153.515 32.5354 152.576 26.5332L150.104 10.7253C149.166 4.72314 143.539 0.618283 137.537 1.55687Z" fill="#E7B9E2" stroke="#303030" stroke-width="2"/>
<path d="M64.837 37.2169L63.3538 27.7322L68.9261 26.8608L69.0985 27.9634L64.7119 28.6494L65.1624 31.5303L66.9763 31.2467C67.577 31.1528 68.112 31.1825 68.5814 31.3358C69.0586 31.4879 69.4479 31.7509 69.7493 32.1248C70.0507 32.4987 70.2459 32.9703 70.3349 33.5393C70.4226 34.1005 70.3801 34.6051 70.2072 35.0532C70.0344 35.5013 69.7446 35.8746 69.3378 36.173C68.9377 36.4623 68.4373 36.6539 67.8366 36.7478L64.837 37.2169ZM65.8502 35.9289L67.7116 35.6378C68.2411 35.555 68.6332 35.3439 68.8878 35.0045C69.1491 34.6559 69.239 34.2208 69.1574 33.6992C69.0758 33.1775 68.8581 32.7946 68.5041 32.5503C68.1568 32.2969 67.7183 32.2116 67.1888 32.2945L65.3274 32.5855L65.8502 35.9289ZM72.982 31.6557L77.3687 30.9698L77.0553 31.5289C76.9267 30.7069 76.6783 30.102 76.31 29.7143C75.9404 29.3186 75.4671 29.1659 74.8902 29.2561C74.2657 29.3538 73.8161 29.6629 73.5413 30.1837C73.2731 30.6952 73.2039 31.366 73.3336 32.1959C73.4733 33.089 73.7541 33.7455 74.176 34.1654C74.5967 34.5774 75.1311 34.7327 75.7793 34.6313C76.214 34.5633 76.5721 34.394 76.8537 34.1232C77.134 33.8446 77.339 33.4724 77.4686 33.0068L78.5356 32.8399C78.4937 33.3485 78.3622 33.8023 78.1412 34.2012C77.9202 34.6002 77.6229 34.926 77.2495 35.1787C76.8827 35.4223 76.4464 35.5837 75.9406 35.6628C75.2845 35.7654 74.7005 35.7069 74.1884 35.4874C73.6751 35.2599 73.2481 34.8854 72.9075 34.3638C72.5734 33.833 72.344 33.1685 72.2192 32.3702C72.1005 31.6114 72.125 30.9395 72.2927 30.3546C72.4603 29.7697 72.7505 29.2952 73.1632 28.931C73.5826 28.5578 74.1044 28.3223 74.7289 28.2247C75.3296 28.1307 75.861 28.1893 76.3232 28.4005C76.7853 28.6116 77.1691 28.9686 77.4744 29.4714C77.7786 29.9664 77.99 30.5933 78.1086 31.3521C78.1222 31.439 78.1325 31.5305 78.1394 31.6266C78.153 31.7135 78.162 31.7971 78.1665 31.8774L73.1396 32.6635L72.982 31.6557ZM80.613 34.8471L80.4498 33.8038L80.6633 33.7704C80.8688 33.7383 81.0356 33.6919 81.1638 33.6314C81.2986 33.5617 81.3945 33.4496 81.4513 33.295C81.516 33.1391 81.5458 32.9158 81.5408 32.6251C81.5425 32.3252 81.5169 31.9284 81.464 31.4346L80.9833 27.4288L85.6546 26.6984L86.7632 33.7882L85.6251 33.9662L84.6833 27.9434L82.2054 28.3308L82.5948 31.5979C82.67 32.2339 82.6904 32.753 82.6561 33.1551C82.6285 33.5481 82.5472 33.8564 82.4121 34.0799C82.2758 34.2956 82.0861 34.4548 81.843 34.5576C81.6 34.6604 81.3046 34.739 80.9568 34.7933L80.613 34.8471ZM90.595 33.189L89.4863 26.0992L94.205 25.3613L94.3719 26.4283L90.7914 26.9882L91.7332 33.011L90.595 33.189ZM98.1765 34.4326L96.6971 24.9716L97.8352 24.7936L97.9483 25.5168L98.2803 25.4649C98.4018 25.1544 98.6122 24.8948 98.9115 24.686C99.2188 24.476 99.57 24.3401 99.9652 24.2783C100.55 24.1869 101.084 24.2613 101.567 24.5016C102.049 24.7339 102.447 25.1088 102.763 25.6263C103.087 26.1425 103.308 26.7839 103.428 27.5506C103.548 28.3173 103.533 28.9998 103.384 29.598C103.241 30.1871 102.976 30.6659 102.588 31.0342C102.201 31.4025 101.714 31.6324 101.129 31.7239C100.734 31.7857 100.358 31.7635 100.002 31.6573C99.6529 31.5499 99.3739 31.3709 99.1646 31.1202L98.8327 31.1721L99.3147 34.2546L98.1765 34.4326ZM100.737 30.6921C101.362 30.5944 101.807 30.2859 102.074 29.7664C102.349 29.2457 102.421 28.5664 102.29 27.7286C102.159 26.8908 101.883 26.2659 101.463 25.8539C101.05 25.4407 100.531 25.283 99.9068 25.3806C99.2824 25.4783 98.8328 25.7874 98.5579 26.3081C98.283 26.8289 98.2111 27.5081 98.3421 28.3459C98.4732 29.1838 98.749 29.8086 99.1697 30.2206C99.5904 30.6325 100.113 30.7897 100.737 30.6921ZM109.94 25.6821L110.1 26.7017L107.934 27.3804C107.581 27.5005 107.328 27.6735 107.178 27.8995C107.025 28.1177 106.974 28.3808 107.022 28.6891C107.069 28.9895 107.214 29.2178 107.457 29.3741C107.707 29.5213 108.013 29.5665 108.377 29.5096C108.74 29.4527 109.059 29.3139 109.332 29.093C109.605 28.8722 109.806 28.6019 109.934 28.2823C110.07 27.9614 110.109 27.6192 110.053 27.2556L109.767 25.4298C109.691 24.9398 109.484 24.5793 109.149 24.3484C108.821 24.1162 108.4 24.0403 107.886 24.1207C107.523 24.1775 107.212 24.2908 106.956 24.4605C106.698 24.6224 106.496 24.8321 106.35 25.0897C106.212 25.3461 106.141 25.6446 106.137 25.9853L105.047 26.1558C105.002 25.6122 105.084 25.1257 105.292 24.6964C105.499 24.2592 105.812 23.9026 106.23 23.6266C106.647 23.3428 107.156 23.1539 107.757 23.0599C108.618 22.9252 109.317 23.0427 109.852 23.4124C110.395 23.773 110.729 24.3603 110.857 25.1744L111.596 29.9049L110.494 30.0773L110.386 29.3897L110.054 29.4416C109.908 29.7479 109.684 30.0015 109.384 30.2023C109.091 30.4019 108.724 30.5364 108.281 30.6056C107.846 30.6735 107.454 30.6499 107.104 30.5346C106.76 30.4101 106.478 30.2113 106.258 29.9382C106.037 29.665 105.895 29.3269 105.832 28.9238C105.74 28.3389 105.847 27.8323 106.153 27.4039C106.466 26.9743 106.958 26.6505 107.628 26.4323L109.94 25.6821ZM114.072 31.3518L113.625 28.4945L114.1 28.4204C114.215 28.2242 114.304 28.02 114.368 27.8075C114.431 27.5872 114.468 27.3304 114.478 27.0372C114.497 26.7428 114.493 26.383 114.468 25.958C114.442 25.5329 114.394 25.0221 114.325 24.4256C114.255 23.8212 114.166 23.0982 114.059 22.2567L118.718 21.5281L119.66 27.5509L120.525 27.4155L120.972 30.2728L119.905 30.4397L119.625 28.6494L114.859 29.3947L115.139 31.185L114.072 31.3518ZM115.356 28.2239L118.522 27.7288L117.747 22.7731L115.269 23.1606C115.36 23.948 115.431 24.6129 115.484 25.1553C115.535 25.6898 115.565 26.1426 115.575 26.5136C115.592 26.8833 115.582 27.2048 115.543 27.478C115.512 27.7421 115.449 27.9907 115.356 28.2239Z" fill="#303030"/>
<path d="M96.1385 47.5045L94.1625 47.8135L98.7974 77.4533L100.773 77.1443L96.1385 47.5045Z" fill="#303030"/>
<path d="M217.686 45.6754L118.91 52.3401C112.849 52.749 108.267 57.9943 108.676 64.0556L109.753 80.0193C110.162 86.0807 115.407 90.6628 121.468 90.2538L220.244 83.5892C226.305 83.1802 230.887 77.935 230.478 71.8736L229.401 55.9099C228.992 49.8486 223.747 45.2664 217.686 45.6754Z" fill="#E7B9E2" stroke="#303030" stroke-width="2"/>
<path d="M144.164 74.6907L143.593 66.2259L140.755 66.4174L140.68 65.3039L147.552 64.8402L147.627 65.9537L144.79 66.1452L145.361 74.6099L144.164 74.6907ZM153.17 74.2634C152.148 74.3324 151.333 74.0106 150.723 73.298C150.122 72.5848 149.775 71.5378 149.681 70.157C149.563 68.4089 149.747 67.0816 150.231 66.175C150.714 65.2603 151.517 64.7411 152.639 64.6173L153.642 64.5015C153.88 64.4694 154.044 64.4062 154.134 64.312C154.224 64.2177 154.266 64.0665 154.26 63.8585L155.397 63.7817C155.42 64.2372 155.375 64.589 155.264 64.8371C155.16 65.0846 154.984 65.2649 154.735 65.3779C154.494 65.4904 154.175 65.5721 153.777 65.6229L152.728 65.7539C152.084 65.8294 151.596 66.0948 151.266 66.5501C150.944 66.9968 150.762 67.6385 150.723 68.4751L150.866 68.4654C151.049 68.0842 151.313 67.7817 151.659 67.5579C152.005 67.3342 152.417 67.2061 152.896 67.1738C153.502 67.1329 154.035 67.2413 154.493 67.499C154.96 67.7562 155.33 68.1401 155.605 68.6507C155.888 69.1609 156.054 69.7751 156.103 70.4935C156.151 71.2118 156.062 71.8473 155.834 72.3998C155.615 72.9519 155.276 73.3917 154.817 73.7193C154.365 74.0385 153.816 74.2198 153.17 74.2634ZM153.133 73.1835C153.756 73.1415 154.228 72.8891 154.549 72.4264C154.871 71.9637 155.005 71.3452 154.953 70.571C154.901 69.7968 154.684 69.202 154.304 68.7867C153.931 68.3708 153.433 68.1839 152.81 68.2259C152.188 68.2679 151.716 68.5203 151.394 68.983C151.073 69.4457 150.938 70.0642 150.99 70.8384C151.042 71.6126 151.259 72.2074 151.64 72.6227C152.021 73.038 152.518 73.2249 153.133 73.1835ZM158.655 73.7129L158.172 66.5532L159.31 66.4764L159.609 70.9064L159.704 72.8604L159.836 72.8515L161.968 66.2971L163.919 66.1654L164.402 73.3251L163.265 73.4019L162.964 68.948L162.87 67.018L162.739 67.0269L160.607 73.5812L158.655 73.7129ZM166.447 73.2834L166.375 72.2298L166.591 72.2153C166.799 72.2013 166.969 72.1698 167.102 72.1207C167.242 72.0631 167.348 71.9598 167.418 71.8107C167.496 71.6611 167.545 71.4413 167.566 71.1513C167.594 70.8527 167.603 70.4552 167.593 69.9587L167.466 65.9261L172.183 65.6079L172.666 72.7676L171.517 72.8451L171.106 66.763L168.604 66.9318L168.706 70.2204C168.725 70.8606 168.7 71.3794 168.63 71.777C168.568 72.1661 168.46 72.466 168.306 72.6769C168.151 72.8798 167.948 73.0217 167.697 73.1028C167.446 73.1839 167.145 73.2363 166.794 73.26L166.447 73.2834ZM175.422 72.5816L174.939 65.4219L176.076 65.3452L176.375 69.7751L176.471 71.7291L176.603 71.7202L178.734 65.1658L180.686 65.0341L181.169 72.1939L180.032 72.2706L179.731 67.8167L179.637 65.8867L179.505 65.8956L177.374 72.4499L175.422 72.5816ZM186.847 71.9912C186.2 72.0348 185.631 71.9248 185.14 71.6613C184.649 71.3898 184.257 70.9832 183.964 70.4417C183.671 69.9002 183.498 69.2464 183.446 68.4801C183.394 67.6979 183.48 67.0145 183.705 66.4301C183.93 65.8456 184.276 65.3852 184.742 65.0491C185.208 64.7049 185.777 64.5102 186.447 64.465C187.03 64.4257 187.545 64.5112 187.992 64.7216C188.439 64.932 188.801 65.2483 189.078 65.6706C189.363 66.0924 189.538 66.6018 189.602 67.1988L188.549 67.2699C188.413 66.6857 188.167 66.2453 187.81 65.9486C187.453 65.644 187.011 65.5094 186.484 65.545C185.821 65.5897 185.327 65.8636 185 66.3668C184.672 66.8619 184.538 67.5405 184.596 68.4026C184.653 69.2486 184.869 69.8916 185.243 70.3314C185.625 70.7626 186.135 70.9567 186.774 70.9136C187.253 70.8813 187.642 70.7107 187.942 70.4018C188.242 70.0929 188.434 69.675 188.519 69.1481L189.573 69.0771C189.562 69.639 189.443 70.1322 189.215 70.5565C188.987 70.9808 188.669 71.3189 188.261 71.571C187.861 71.8145 187.389 71.9546 186.847 71.9912ZM192.189 71.4503L191.706 64.2906L192.843 64.2139L193.142 68.6438L193.238 70.5978L193.369 70.5889L195.501 64.0345L197.452 63.9028L197.936 71.0626L196.798 71.1393L196.498 66.6854L196.403 64.7554L196.272 64.7643L194.14 71.3187L192.189 71.4503Z" fill="#303030"/>
<path d="M172.419 87.8182L170.424 87.9529L172.444 117.885L174.439 117.75L172.419 87.8182Z" fill="#303030"/>
<path d="M256.025 90.2899L157.467 80.9481C151.419 80.3749 146.051 84.813 145.478 90.8611L143.968 106.79C143.395 112.838 147.833 118.205 153.881 118.779L252.439 128.12C258.487 128.694 263.855 124.255 264.428 118.207L265.938 102.279C266.511 96.2307 262.073 90.8631 256.025 90.2899Z" fill="#E7B9E2" stroke="#303030" stroke-width="2"/>
<path d="M181.487 97.6892L187.46 98.2554L186.555 107.813L185.36 107.699L186.158 99.2771L182.574 98.9374L181.776 107.36L180.581 107.247L181.487 97.6892ZM188.827 108.028L191.289 104.814L189.372 100.872L190.71 100.998L192.196 104.02L192.25 104.339L192.37 104.35L192.483 104.047L194.593 101.366L195.847 101.485L193.186 104.897L195.039 108.617L193.677 108.488L192.288 105.716L192.221 105.409L192.113 105.398L192.002 105.689L190.105 108.149L188.827 108.028ZM197.689 101.66L198.92 101.777L200.346 107.457L201.123 107.53L200.713 108.552L199.398 108.427L197.689 101.66ZM204.296 102.286L200.779 110.27C200.575 110.725 200.31 111.065 199.983 111.291C199.656 111.517 199.298 111.612 198.907 111.575C198.334 111.521 197.903 111.319 197.615 110.97C197.325 110.63 197.186 110.15 197.196 109.533L198.248 109.632C198.308 109.927 198.392 110.144 198.499 110.283C198.606 110.43 198.759 110.512 198.958 110.531C199.141 110.549 199.294 110.503 199.417 110.394C199.548 110.286 199.673 110.105 199.794 109.851L203.149 102.177L204.296 102.286ZM210.371 110.07L207.488 106.277L211.155 102.936L212.613 103.074L208.973 106.382L211.9 110.215L210.371 110.07ZM206.357 109.69L207.034 102.546L208.181 102.654L207.504 109.798L206.357 109.69ZM215.312 106.283L219.733 106.702L219.291 107.167C219.369 106.339 219.278 105.691 219.017 105.224C218.757 104.75 218.336 104.485 217.754 104.43C217.125 104.37 216.613 104.559 216.218 104.995C215.832 105.425 215.599 106.058 215.52 106.894C215.435 107.794 215.544 108.499 215.85 109.01C216.155 109.513 216.635 109.796 217.288 109.858C217.726 109.899 218.115 109.824 218.455 109.631C218.795 109.43 219.086 109.12 219.326 108.701L220.401 108.803C220.235 109.285 219.996 109.693 219.683 110.025C219.37 110.357 219.002 110.599 218.577 110.752C218.162 110.897 217.699 110.946 217.19 110.897C216.528 110.835 215.977 110.634 215.535 110.294C215.094 109.947 214.773 109.479 214.571 108.889C214.379 108.292 214.321 107.592 214.397 106.787C214.469 106.023 214.659 105.378 214.966 104.852C215.273 104.327 215.671 103.939 216.161 103.688C216.66 103.43 217.224 103.331 217.853 103.39C218.458 103.448 218.959 103.636 219.354 103.954C219.75 104.273 220.034 104.714 220.205 105.277C220.378 105.831 220.428 106.491 220.355 107.256C220.347 107.343 220.334 107.434 220.317 107.529C220.309 107.617 220.297 107.7 220.282 107.779L215.216 107.299L215.312 106.283ZM224.819 111.44L225.394 105.371L223.005 105.144L223.107 104.069L229.032 104.631L228.93 105.706L226.541 105.479L225.966 111.548L224.819 111.44Z" fill="#303030"/>
<path d="M204.559 124.587L202.568 124.398L199.737 154.264L201.728 154.453L204.559 124.587Z" fill="#303030"/>
<path d="M108.719 86.4516L10.7516 100.715C4.73982 101.59 0.57589 107.174 1.45117 113.185L3.7564 129.018C4.63168 135.03 10.2147 139.194 16.2265 138.319L114.194 124.055C120.205 123.18 124.369 117.597 123.494 111.585L121.189 95.752C120.313 89.7403 114.73 85.5764 108.719 86.4516Z" fill="#E7B9E2" stroke="#303030" stroke-width="2"/>
<path d="M35.3768 121.382L34.1545 112.987L31.0552 113.438L30.8944 112.334L35.1812 111.71L36.5643 121.209L35.3768 121.382ZM29.7026 122.305L29.5419 121.201L29.72 121.175C29.91 121.147 30.0767 121.099 30.2202 121.03C30.3716 120.959 30.4901 120.829 30.5756 120.638C30.661 120.448 30.7078 120.158 30.7158 119.769C30.7317 119.379 30.7031 118.849 30.6301 118.181L30.0038 112.463L31.1319 112.299L31.8416 118.756C31.9145 119.368 31.9329 119.883 31.8967 120.3C31.8672 120.709 31.794 121.039 31.677 121.29C31.5668 121.533 31.4242 121.719 31.2491 121.85C31.073 121.973 30.8758 122.062 30.6576 122.118C30.4484 122.181 30.2291 122.229 29.9995 122.262L29.7026 122.305ZM39.0603 120.846L38.0265 113.745L39.1546 113.581L39.7943 117.974L40.0404 119.915L40.1711 119.896L41.7908 113.197L43.7264 112.915L44.7603 120.016L43.6321 120.18L42.989 115.763L42.7463 113.846L42.6156 113.865L40.9959 120.564L39.0603 120.846ZM47.1019 119.675L46.068 112.574L47.9324 112.303L49.909 117.217L50.0278 117.2L50.5092 111.927L52.3142 111.665L53.348 118.766L52.2912 118.92L51.7967 115.523L51.4157 112.656L51.2851 112.675L50.8151 117.776L49.2476 118.005L47.3426 113.249L47.212 113.268L47.6643 116.125L48.1588 119.521L47.1019 119.675ZM59.5879 113.383L59.7366 114.404L57.5644 115.06C57.2095 115.176 56.9554 115.346 56.8021 115.571C56.6477 115.787 56.593 116.05 56.6379 116.359C56.6817 116.659 56.8243 116.889 57.0657 117.048C57.3139 117.198 57.6201 117.246 57.9842 117.193C58.3484 117.14 58.6682 117.005 58.9437 116.787C59.2191 116.569 59.4226 116.301 59.5542 115.983C59.6936 115.663 59.7368 115.321 59.6838 114.957L59.4175 113.128C59.3461 112.638 59.1437 112.275 58.8104 112.041C58.4851 111.805 58.0652 111.725 57.5506 111.8C57.1864 111.853 56.875 111.963 56.6164 112.13C56.3566 112.289 56.1524 112.496 56.0037 112.752C55.863 113.007 55.7891 113.305 55.7821 113.646L54.6896 113.805C54.6508 113.261 54.7378 112.775 54.9505 112.348C55.162 111.913 55.4784 111.56 55.8997 111.288C56.3198 111.009 56.8307 110.825 57.4323 110.738C58.2952 110.612 58.9925 110.737 59.5241 111.112C60.0625 111.478 60.3911 112.069 60.5098 112.885L61.1996 117.623L60.0953 117.783L59.995 117.095L59.6625 117.143C59.5128 117.448 59.2867 117.699 58.984 117.897C58.6892 118.093 58.3202 118.224 57.8769 118.288C57.4414 118.352 57.0493 118.324 56.7006 118.205C56.3585 118.077 56.0786 117.875 55.8606 117.6C55.6426 117.324 55.5043 116.985 55.4455 116.581C55.3602 115.995 55.4725 115.489 55.7825 115.064C56.1004 114.638 56.5957 114.319 57.2683 114.108L59.5879 113.383ZM67.0346 116.955C66.3934 117.048 65.8179 116.983 65.3082 116.758C64.7973 116.525 64.3749 116.15 64.0409 115.632C63.7069 115.115 63.4845 114.477 63.3739 113.717C63.2609 112.941 63.2941 112.253 63.4736 111.653C63.653 111.053 63.9622 110.567 64.4013 110.196C64.8393 109.817 65.3908 109.579 66.0558 109.482C66.6337 109.398 67.1536 109.443 67.6157 109.619C68.0778 109.794 68.4632 110.081 68.772 110.481C69.0888 110.88 69.3022 111.374 69.4124 111.964L68.3674 112.116C68.1871 111.544 67.9077 111.124 67.5291 110.856C67.1493 110.58 66.6982 110.48 66.1757 110.556C65.5187 110.652 65.0466 110.963 64.7595 111.49C64.4713 112.009 64.3894 112.696 64.5139 113.551C64.636 114.39 64.9008 115.014 65.308 115.424C65.722 115.824 66.2457 115.978 66.879 115.886C67.354 115.817 67.7291 115.617 68.0043 115.286C68.2794 114.955 68.4389 114.523 68.4828 113.991L69.5278 113.839C69.5609 114.4 69.4803 114.901 69.2857 115.342C69.0912 115.782 68.8002 116.144 68.4129 116.427C68.0324 116.701 67.573 116.877 67.0346 116.955ZM75.3493 115.744C74.7081 115.838 74.1326 115.772 73.6229 115.547C73.112 115.314 72.6896 114.939 72.3555 114.422C72.0215 113.905 71.7992 113.266 71.6886 112.506C71.5756 111.73 71.6088 111.042 71.7882 110.442C71.9676 109.842 72.2769 109.356 72.716 108.985C73.154 108.606 73.7054 108.368 74.3704 108.271C74.9483 108.187 75.4683 108.233 75.9304 108.408C76.3925 108.583 76.7779 108.871 77.0867 109.271C77.4034 109.669 77.6169 110.163 77.7271 110.754L76.6821 110.906C76.5018 110.334 76.2224 109.914 75.8438 109.646C75.464 109.369 75.0129 109.269 74.4904 109.345C73.8333 109.441 73.3613 109.752 73.0742 110.279C72.7859 110.798 72.7041 111.485 72.8285 112.34C72.9507 113.179 73.2154 113.804 73.6227 114.213C74.0367 114.614 74.5604 114.768 75.1937 114.676C75.6687 114.606 76.0438 114.406 76.319 114.075C76.5941 113.744 76.7536 113.313 76.7974 112.781L77.8424 112.629C77.8756 113.19 77.7949 113.691 77.6004 114.131C77.4058 114.572 77.1149 114.934 76.7276 115.216C76.3471 115.49 75.8876 115.666 75.3493 115.744ZM83.5096 114.556C82.8684 114.65 82.2884 114.58 81.7696 114.349C81.2508 114.117 80.8204 113.743 80.4785 113.227C80.1433 112.702 79.9199 112.055 79.808 111.287C79.6962 110.52 79.7267 109.84 79.8993 109.249C80.0799 108.657 80.3858 108.176 80.8169 107.806C81.247 107.428 81.7826 107.192 82.4239 107.099C83.073 107.004 83.6536 107.077 84.1656 107.318C84.6844 107.55 85.1108 107.924 85.4448 108.442C85.7868 108.958 86.0136 109.6 86.1254 110.368C86.2372 111.136 86.2034 111.82 86.024 112.42C85.8514 113.011 85.5495 113.491 85.1183 113.861C84.695 114.23 84.1588 114.462 83.5096 114.556ZM83.354 113.488C83.9953 113.394 84.456 113.089 84.7364 112.571C85.0246 112.052 85.1076 111.373 84.9855 110.534C84.8633 109.695 84.5901 109.067 84.1658 108.652C83.7495 108.236 83.2207 108.074 82.5795 108.168C81.9461 108.26 81.4854 108.565 81.1971 109.084C80.9089 109.603 80.8259 110.282 80.948 111.121C81.0702 111.961 81.3434 112.588 81.7677 113.003C82.1919 113.418 82.7207 113.58 83.354 113.488ZM88.3685 113.764L88.2164 112.719L88.4301 112.688C88.6359 112.658 88.8033 112.613 88.9321 112.554C89.0677 112.486 89.1647 112.375 89.2231 112.221C89.2894 112.066 89.3216 111.843 89.3197 111.552C89.3246 111.252 89.3031 110.855 89.2554 110.361L88.817 106.35L93.4957 105.669L94.5296 112.77L93.3896 112.936L92.5113 106.903L90.0295 107.265L90.3844 110.536C90.4529 111.173 90.4679 111.692 90.4294 112.094C90.3976 112.486 90.313 112.794 90.1756 113.016C90.037 113.23 89.8456 113.387 89.6015 113.487C89.3574 113.588 89.0612 113.663 88.7129 113.714L88.3685 113.764Z" fill="#303030"/>
<path d="M66.8385 131.96L64.8594 132.248L69.1817 161.935L71.1608 161.647L66.8385 131.96Z" fill="#303030"/>
</g>
<defs>
<clipPath id="clip0_72_902">
<rect width="308" height="171" fill="white"/>
</clipPath>
</defs>
</svg>
