<svg width="24" height="42" viewBox="0 0 24 42" fill="none" xmlns="http://www.w3.org/2000/svg">
<path fill-rule="evenodd" clip-rule="evenodd" d="M8.84998 3.89215C10.9009 1.8409 13.6826 0.688332 16.5833 0.687988H22.2083C22.6227 0.687988 23.0201 0.852608 23.3132 1.14563C23.6062 1.43866 23.7708 1.83609 23.7708 2.25049V9.75049C23.7708 10.1649 23.6062 10.5623 23.3132 10.8553C23.0201 11.1484 22.6227 11.313 22.2083 11.313H16.5833C16.5423 11.313 16.5016 11.3211 16.4637 11.3368C16.4258 11.3525 16.3914 11.3755 16.3623 11.4045C16.3333 11.4335 16.3103 11.468 16.2946 11.5059C16.2789 11.5438 16.2708 11.5844 16.2708 11.6255V15.688H22.2083C22.4459 15.6879 22.6803 15.7419 22.8938 15.846C23.1073 15.9501 23.2943 16.1014 23.4405 16.2886C23.5868 16.4758 23.6884 16.6939 23.7377 16.9263C23.787 17.1587 23.7826 17.3992 23.725 17.6297L21.85 25.1297C21.7654 25.4678 21.5702 25.768 21.2953 25.9824C21.0205 26.1968 20.6819 26.3132 20.3333 26.313H16.2708V39.7505C16.2708 40.1649 16.1062 40.5623 15.8132 40.8553C15.5201 41.1484 15.1227 41.313 14.7083 41.313H7.20831C6.79391 41.313 6.39648 41.1484 6.10346 40.8553C5.81043 40.5623 5.64581 40.1649 5.64581 39.7505V26.313H1.58331C1.16891 26.313 0.771484 26.1484 0.478458 25.8553C0.185433 25.5623 0.020813 25.1649 0.020813 24.7505V17.2505C0.020813 17.0453 0.0612281 16.8421 0.139751 16.6525C0.218274 16.463 0.333367 16.2907 0.478458 16.1456C0.62355 16.0005 0.795799 15.8854 0.98537 15.8069C1.17494 15.7284 1.37812 15.688 1.58331 15.688H5.64581V11.6255C5.64616 8.72481 6.79872 5.94307 8.84998 3.89215ZM16.5833 3.81299C14.5113 3.81299 12.5242 4.63609 11.059 6.10122C9.59391 7.56634 8.77081 9.55348 8.77081 11.6255V17.2505C8.77081 17.6649 8.60619 18.0623 8.31317 18.3553C8.02014 18.6484 7.62271 18.813 7.20831 18.813H3.14581V23.188H7.20831C7.62271 23.188 8.02014 23.3526 8.31317 23.6456C8.60619 23.9387 8.77081 24.3361 8.77081 24.7505V38.188H13.1458V24.7505C13.1458 24.3361 13.3104 23.9387 13.6035 23.6456C13.8965 23.3526 14.2939 23.188 14.7083 23.188H19.1125L20.2062 18.813H14.7083C14.2939 18.813 13.8965 18.6484 13.6035 18.3553C13.3104 18.0623 13.1458 17.6649 13.1458 17.2505V11.6255C13.1458 10.7138 13.508 9.83947 14.1526 9.19481C14.7973 8.55015 15.6716 8.18799 16.5833 8.18799H20.6458V3.81299H16.5833Z" fill="#303030"/>
</svg>
