<svg width="42" height="42" viewBox="0 0 42 42" fill="none" xmlns="http://www.w3.org/2000/svg">
<path d="M12.25 0.167236H29.75C36.4167 0.167236 41.8334 5.5839 41.8334 12.2506V29.7506C41.8334 32.9553 40.5603 36.0287 38.2942 38.2948C36.0282 40.5608 32.9547 41.8339 29.75 41.8339H12.25C5.58335 41.8339 0.166687 36.4172 0.166687 29.7506V12.2506C0.166687 9.04587 1.43975 5.97243 3.70581 3.70636C5.97188 1.4403 9.04532 0.167236 12.25 0.167236ZM11.8334 4.3339C9.84423 4.3339 7.93658 5.12408 6.53005 6.5306C5.12353 7.93713 4.33335 9.84478 4.33335 11.8339V30.1672C4.33335 34.3131 7.68752 37.6672 11.8334 37.6672H30.1667C32.1558 37.6672 34.0635 36.8771 35.47 35.4705C36.8765 34.064 37.6667 32.1564 37.6667 30.1672V11.8339C37.6667 7.68807 34.3125 4.3339 30.1667 4.3339H11.8334ZM31.9375 7.4589C32.6282 7.4589 33.2906 7.73327 33.7789 8.22165C34.2673 8.71002 34.5417 9.3724 34.5417 10.0631C34.5417 10.7537 34.2673 11.4161 33.7789 11.9045C33.2906 12.3929 32.6282 12.6672 31.9375 12.6672C31.2469 12.6672 30.5845 12.3929 30.0961 11.9045C29.6077 11.4161 29.3334 10.7537 29.3334 10.0631C29.3334 9.3724 29.6077 8.71002 30.0961 8.22165C30.5845 7.73327 31.2469 7.4589 31.9375 7.4589ZM21 10.5839C23.7627 10.5839 26.4122 11.6814 28.3657 13.6349C30.3192 15.5884 31.4167 18.2379 31.4167 21.0006C31.4167 23.7632 30.3192 26.4128 28.3657 28.3663C26.4122 30.3198 23.7627 31.4172 21 31.4172C18.2374 31.4172 15.5878 30.3198 13.6343 28.3663C11.6808 26.4128 10.5834 23.7632 10.5834 21.0006C10.5834 18.2379 11.6808 15.5884 13.6343 13.6349C15.5878 11.6814 18.2374 10.5839 21 10.5839ZM21 14.7506C19.3424 14.7506 17.7527 15.409 16.5806 16.5812C15.4085 17.7533 14.75 19.343 14.75 21.0006C14.75 22.6582 15.4085 24.2479 16.5806 25.42C17.7527 26.5921 19.3424 27.2506 21 27.2506C22.6576 27.2506 24.2473 26.5921 25.4194 25.42C26.5915 24.2479 27.25 22.6582 27.25 21.0006C27.25 19.343 26.5915 17.7533 25.4194 16.5812C24.2473 15.409 22.6576 14.7506 21 14.7506Z" fill="#303030"/>
</svg>
