<svg width="22" height="22" viewBox="0 0 22 22" fill="none" xmlns="http://www.w3.org/2000/svg">
<path d="M6.92359 0.952942H15.5707C18.8648 0.952942 21.5412 3.62941 21.5412 6.92353V15.5706C21.5412 17.1541 20.9122 18.6727 19.7925 19.7924C18.6728 20.9121 17.1542 21.5412 15.5707 21.5412H6.92359C3.62947 21.5412 0.953003 18.8647 0.953003 15.5706V6.92353C0.953003 5.34003 1.58205 3.82139 2.70175 2.70169C3.82145 1.58198 5.34009 0.952942 6.92359 0.952942ZM6.71771 3.01177C5.73485 3.01177 4.79224 3.40221 4.09725 4.09719C3.40227 4.79218 3.01183 5.73479 3.01183 6.71765V15.7765C3.01183 17.825 4.66918 19.4824 6.71771 19.4824H15.7765C16.7594 19.4824 17.702 19.0919 18.397 18.3969C19.092 17.7019 19.4824 16.7593 19.4824 15.7765V6.71765C19.4824 4.66912 17.8251 3.01177 15.7765 3.01177H6.71771ZM16.6515 4.55588C16.9928 4.55588 17.3201 4.69145 17.5614 4.93277C17.8027 5.17408 17.9383 5.50138 17.9383 5.84265C17.9383 6.18392 17.8027 6.51121 17.5614 6.75253C17.3201 6.99384 16.9928 7.12941 16.6515 7.12941C16.3103 7.12941 15.983 6.99384 15.7417 6.75253C15.5003 6.51121 15.3648 6.18392 15.3648 5.84265C15.3648 5.50138 15.5003 5.17408 15.7417 4.93277C15.983 4.69145 16.3103 4.55588 16.6515 4.55588ZM11.2471 6.1C12.6122 6.1 13.9214 6.64228 14.8866 7.60754C15.8519 8.5728 16.3942 9.88198 16.3942 11.2471C16.3942 12.6121 15.8519 13.9213 14.8866 14.8866C13.9214 15.8518 12.6122 16.3941 11.2471 16.3941C9.88204 16.3941 8.57286 15.8518 7.6076 14.8866C6.64234 13.9213 6.10006 12.6121 6.10006 11.2471C6.10006 9.88198 6.64234 8.5728 7.6076 7.60754C8.57286 6.64228 9.88204 6.1 11.2471 6.1ZM11.2471 8.15882C10.4281 8.15882 9.64256 8.48419 9.06341 9.06335C8.48425 9.6425 8.15889 10.428 8.15889 11.2471C8.15889 12.0661 8.48425 12.8516 9.06341 13.4308C9.64256 14.0099 10.4281 14.3353 11.2471 14.3353C12.0662 14.3353 12.8517 14.0099 13.4308 13.4308C14.01 12.8516 14.3354 12.0661 14.3354 11.2471C14.3354 10.428 14.01 9.6425 13.4308 9.06335C12.8517 8.48419 12.0662 8.15882 11.2471 8.15882Z" fill="#303030"/>
</svg>
