<svg width="998" height="258" viewBox="0 0 998 258" fill="none" xmlns="http://www.w3.org/2000/svg">
<path d="M99.9814 115V0H173.581V15.7326H116.701V47.9965H163.981V63.7292H116.701V99.2673H173.581V115H99.9814Z" fill="#D4D4D4"/>
<path d="M192.794 115V0H239.354C240.474 0 241.861 0.0532401 243.514 0.15972C245.167 0.212963 246.741 0.372687 248.234 0.63889C254.634 1.65046 259.967 3.83333 264.234 7.1875C268.554 10.5417 271.781 14.7743 273.914 19.8854C276.047 24.9965 277.114 30.64 277.114 36.816C277.114 45.9734 274.767 53.8796 270.074 60.5347C265.381 67.1366 258.341 71.2627 248.954 72.9132L242.154 73.7118H209.514V115H192.794ZM260.154 115L237.434 68.2014L254.314 63.8889L279.274 115H260.154ZM209.514 57.8993H238.714C239.781 57.8993 240.954 57.8461 242.234 57.7396C243.567 57.6331 244.821 57.4468 245.994 57.1806C249.407 56.3819 252.154 54.9178 254.234 52.7882C256.314 50.6053 257.807 48.103 258.714 45.2812C259.621 42.4595 260.074 39.6377 260.074 36.816C260.074 33.9942 259.621 31.1991 258.714 28.4305C257.807 25.6088 256.314 23.1331 254.234 21.0035C252.154 18.8206 249.407 17.3299 245.994 16.5312C244.821 16.2118 243.567 15.9988 242.234 15.8924C240.954 15.7859 239.781 15.7326 238.714 15.7326H209.514V57.8993Z" fill="#D4D4D4"/>
<path d="M296.856 115V0H370.456V15.7326H313.576V47.9965H360.856V63.7292H313.576V99.2673H370.456V115H296.856Z" fill="#D4D4D4"/>
<path d="M500.138 115V0H573.738V15.7326H516.858V47.9965H564.138V63.7292H516.858V99.2673H573.738V115H500.138Z" fill="#D4D4D4"/>
<path d="M594.55 115V0H611.27V99.2673H663.43V115H594.55Z" fill="#D4D4D4"/>
<path d="M669.013 115L706.453 0H730.533L767.973 115H750.613L716.133 10.0625H720.453L686.373 115H669.013ZM688.453 89.0451V73.3924H748.613V89.0451H688.453Z" fill="#D4D4D4"/>
<path d="M782.325 115V0H799.285L856.005 85.4514V0H872.965V115H856.005L799.285 29.4687V115H782.325Z" fill="#D4D4D4"/>
<rect y="0.199585" width="17" height="114.8" fill="#D4D4D4"/>
<rect x="17" y="0.199585" width="49" height="16.9705" fill="#D4D4D4"/>
<rect x="66" y="16.1718" width="17" height="16.9705" fill="#D4D4D4"/>
<rect x="66" y="33.1423" width="17" height="16.9705" fill="#D4D4D4"/>
<rect x="17" y="50.1128" width="49" height="16.9705" fill="#D4D4D4"/>
<rect x="390" y="0.199585" width="17" height="114.8" fill="#D4D4D4"/>
<rect x="407" y="0.199585" width="40" height="16.9705" fill="#D4D4D4"/>
<rect x="407" y="98.0295" width="40" height="16.9705" fill="#D4D4D4"/>
<rect x="447" y="17.1701" width="17" height="16.9705" fill="#D4D4D4"/>
<rect x="464" y="34.1406" width="17" height="46.9184" fill="#D4D4D4"/>
<rect x="447" y="81.059" width="17" height="16.9705" fill="#D4D4D4"/>
<rect x="924" y="0.199585" width="40" height="16.9705" fill="#D4D4D4"/>
<rect x="924" y="98.0295" width="40" height="16.9705" fill="#D4D4D4"/>
<rect x="964" y="17.1701" width="17" height="16.9705" fill="#D4D4D4"/>
<rect x="907" y="17.1701" width="17" height="16.9705" fill="#D4D4D4"/>
<rect x="981" y="34.1406" width="17" height="46.9184" fill="#D4D4D4"/>
<rect x="890" y="34.1406" width="17" height="46.9184" fill="#D4D4D4"/>
<rect x="964" y="81.059" width="17" height="16.9705" fill="#D4D4D4"/>
<rect x="907" y="81.059" width="17" height="16.9705" fill="#D4D4D4"/>
<path d="M47.6628 258C37.5843 258 28.9989 255.598 21.9067 250.793C14.8144 245.938 9.37858 239.191 5.59915 230.553C1.86638 221.916 0 211.898 0 200.5C0 189.102 1.86638 179.084 5.59915 170.447C9.37858 161.809 14.8144 155.088 21.9067 150.283C28.9989 145.428 37.5843 143 47.6628 143C59.281 143 68.8929 146.22 76.4984 152.66C84.1506 159.1 89.4698 167.763 92.456 178.65L77.6182 183.02C75.6585 175.302 72.1591 169.246 67.1198 164.85C62.1273 160.454 55.6416 158.257 47.6628 158.257C40.5239 158.257 34.5748 160.02 29.8155 163.547C25.0562 167.073 21.4634 172.006 19.0371 178.343C16.6575 184.681 15.4677 192.067 15.4677 200.5C15.421 208.933 16.5875 216.319 18.9671 222.657C21.3934 228.994 24.9862 233.927 29.7455 237.453C34.5514 240.98 40.5239 242.743 47.6628 242.743C55.6416 242.743 62.1273 240.546 67.1198 236.15C72.1591 231.703 75.6585 225.647 77.6182 217.98L92.456 222.35C89.4698 233.237 84.1506 241.9 76.4984 248.34C68.8929 254.78 59.281 258 47.6628 258Z" fill="#D4D4D4"/>
<path d="M149.913 258C139.834 258 131.249 255.598 124.157 250.793C117.065 245.938 111.629 239.191 107.849 230.553C104.117 221.916 102.25 211.898 102.25 200.5C102.25 189.102 104.117 179.084 107.849 170.447C111.629 161.809 117.065 155.088 124.157 150.283C131.249 145.428 139.834 143 149.913 143C159.945 143 168.507 145.428 175.599 150.283C182.738 155.088 188.174 161.809 191.907 170.447C195.639 179.084 197.506 189.102 197.506 200.5C197.506 211.898 195.639 221.916 191.907 230.553C188.174 239.191 182.738 245.938 175.599 250.793C168.507 255.598 159.945 258 149.913 258ZM149.913 242.743C157.052 242.846 162.978 241.133 167.69 237.607C172.449 234.029 176.019 229.071 178.399 222.733C180.778 216.344 181.968 208.933 181.968 200.5C181.968 192.067 180.778 184.707 178.399 178.42C176.019 172.082 172.449 167.15 167.69 163.623C162.978 160.097 157.052 158.308 149.913 158.257C142.774 158.154 136.825 159.867 132.066 163.393C127.353 166.92 123.807 171.878 121.427 178.267C119.048 184.656 117.834 192.067 117.788 200.5C117.741 208.933 118.908 216.319 121.287 222.657C123.667 228.943 127.236 233.85 131.996 237.377C136.802 240.903 142.774 242.692 149.913 242.743Z" fill="#D4D4D4"/>
<path d="M310.299 255.7V145.3H370V161.323H324.927V192.45H361.601V208.55H324.927V255.7H310.299Z" fill="#D4D4D4"/>
<rect x="225.3" y="172.462" width="16.9974" height="18.619" fill="#D4D4D4"/>
<rect x="242.298" y="191.081" width="16.9974" height="18.619" fill="#D4D4D4"/>
<rect x="259.295" y="209.7" width="16.9974" height="18.619" fill="#D4D4D4"/>
<rect x="276.292" y="145.081" width="16.9974" height="110.619" fill="#D4D4D4"/>
<rect x="208.303" y="145.081" width="16.9974" height="110.619" fill="#D4D4D4"/>
</svg>
