<svg width="300" height="76" viewBox="0 0 300 76" fill="none" xmlns="http://www.w3.org/2000/svg">
<g clip-path="url(#clip0_72_899)">
<path d="M30.0547 33.9999V0H52.1789V4.65137H35.0807V14.1902H49.2931V18.8416H35.0807V29.3485H52.1789V33.9999H30.0547Z" fill="#D4D4D4"/>
<path d="M57.9541 33.9999V0H71.9501C72.2868 0 72.7036 0.0157405 73.2006 0.0472214C73.6976 0.0629628 74.1705 0.110185 74.6194 0.188889C76.5433 0.48796 78.1465 1.13333 79.4291 2.12499C80.7277 3.11665 81.6976 4.36804 82.3389 5.87914C82.9802 7.39025 83.3008 9.05876 83.3008 10.8847C83.3008 13.5921 82.5954 15.9296 81.1846 17.8972C79.7737 19.849 77.6575 21.0689 74.8359 21.5569L72.7918 21.793H62.9802V33.9999H57.9541ZM78.2026 33.9999L71.3729 20.1638L76.4471 18.8888L83.9501 33.9999H78.2026ZM62.9802 17.118H71.7577C72.0784 17.118 72.4311 17.1022 72.8158 17.0708C73.2166 17.0393 73.5934 16.9842 73.9461 16.9055C74.9721 16.6694 75.7978 16.2365 76.423 15.6069C77.0483 14.9615 77.4972 14.2217 77.7697 13.3874C78.0423 12.5532 78.1786 11.7189 78.1786 10.8847C78.1786 10.0504 78.0423 9.22404 77.7697 8.40552C77.4972 7.57127 77.0483 6.83932 76.423 6.2097C75.7978 5.56433 74.9721 5.12359 73.9461 4.88748C73.5934 4.79304 73.2166 4.73007 72.8158 4.69859C72.4311 4.66711 72.0784 4.65137 71.7577 4.65137H62.9802V17.118Z" fill="#D4D4D4"/>
<path d="M89.2354 33.9999V0H111.36V4.65137H94.2615V14.1902H108.474V18.8416H94.2615V29.3485H111.36V33.9999H89.2354Z" fill="#D4D4D4"/>
<path d="M150.342 33.9999V0H172.466V4.65137H155.368V14.1902H169.58V18.8416H155.368V29.3485H172.466V33.9999H150.342Z" fill="#D4D4D4"/>
<path d="M178.722 33.9999V0H183.749V29.3485H199.428V33.9999H178.722Z" fill="#D4D4D4"/>
<path d="M201.106 33.9999L212.361 0H219.599L230.854 33.9999H225.635L215.27 2.97499H216.569L206.324 33.9999H201.106ZM206.95 26.3263V21.6985H225.034V26.3263H206.95Z" fill="#D4D4D4"/>
<path d="M235.168 33.9999V0H240.266L257.316 25.2638V0H262.414V33.9999H257.316L240.266 8.71246V33.9999H235.168Z" fill="#D4D4D4"/>
<path d="M5.11022 0.059082H0V33.9999H5.11022V0.059082Z" fill="#D4D4D4"/>
<path d="M19.8399 0.059082H5.11035V5.07642H19.8399V0.059082Z" fill="#D4D4D4"/>
<path d="M24.9491 4.78125H19.8389V9.79859H24.9491V4.78125Z" fill="#D4D4D4"/>
<path d="M24.9491 9.79834H19.8389V14.8157H24.9491V9.79834Z" fill="#D4D4D4"/>
<path d="M19.8399 14.8159H5.11035V19.8333H19.8399V14.8159Z" fill="#D4D4D4"/>
<path d="M122.343 0.059082H117.233V33.9999H122.343V0.059082Z" fill="#D4D4D4"/>
<path d="M134.368 0.059082H122.344V5.07642H134.368V0.059082Z" fill="#D4D4D4"/>
<path d="M134.368 28.9824H122.344V33.9998H134.368V28.9824Z" fill="#D4D4D4"/>
<path d="M139.478 5.07666H134.368V10.094H139.478V5.07666Z" fill="#D4D4D4"/>
<path d="M144.588 10.0938H139.478V23.9653H144.588V10.0938Z" fill="#D4D4D4"/>
<path d="M139.478 23.9653H134.368V28.9827H139.478V23.9653Z" fill="#D4D4D4"/>
<path d="M289.78 0.059082H277.756V5.07642H289.78V0.059082Z" fill="#D4D4D4"/>
<path d="M289.78 28.9824H277.756V33.9998H289.78V28.9824Z" fill="#D4D4D4"/>
<path d="M294.889 5.07617H289.779V10.0935H294.889V5.07617Z" fill="#D4D4D4"/>
<path d="M277.755 5.07617H272.645V10.0935H277.755V5.07617Z" fill="#D4D4D4"/>
<path d="M300.001 10.0938H294.891V23.9653H300.001V10.0938Z" fill="#D4D4D4"/>
<path d="M272.645 10.0938H267.535V23.9653H272.645V10.0938Z" fill="#D4D4D4"/>
<path d="M294.889 23.9653H289.779V28.9827H294.889V23.9653Z" fill="#D4D4D4"/>
<path d="M277.755 23.9653H272.645V28.9827H277.755V23.9653Z" fill="#D4D4D4"/>
<path d="M72.0342 50.7104H66.981V56.2152H72.0342V50.7104Z" fill="#D4D4D4"/>
<path d="M77.0875 56.2153H72.0342V61.7201H77.0875V56.2153Z" fill="#D4D4D4"/>
<path d="M82.1409 61.7202H77.0876V67.225H82.1409V61.7202Z" fill="#D4D4D4"/>
<path d="M87.1944 42.6152H82.1411V75.32H87.1944V42.6152Z" fill="#D4D4D4"/>
<path d="M66.981 42.6152H61.9277V75.32H66.981V42.6152Z" fill="#D4D4D4"/>
<path d="M14.17 76C11.1737 76 8.62131 75.2898 6.5128 73.8693C4.40429 72.4338 2.78823 70.4391 1.66461 67.8853C0.554871 65.3316 0 62.3698 0 59C0 55.6302 0.554871 52.6684 1.66461 50.1147C2.78823 47.5609 4.40429 45.5738 6.5128 44.1533C8.62131 42.7178 11.1737 42 14.17 42C17.6241 42 20.4817 42.952 22.7428 44.856C25.0177 46.76 26.5991 49.3213 27.4869 52.54L23.0757 53.832C22.4931 51.5502 21.4527 49.7596 19.9545 48.46C18.4703 47.1604 16.5421 46.5107 14.17 46.5107C12.0476 46.5107 10.279 47.032 8.86406 48.0747C7.44914 49.1173 6.38101 50.5756 5.65968 52.4493C4.95222 54.3231 4.59849 56.5067 4.59849 59C4.58462 61.4933 4.93141 63.6769 5.63888 65.5507C6.36021 67.4244 7.42833 68.8827 8.84325 69.9253C10.272 70.968 12.0476 71.4893 14.17 71.4893C16.5421 71.4893 18.4703 70.8396 19.9545 69.54C21.4527 68.2253 22.4931 66.4347 23.0757 64.168L27.4869 65.46C26.5991 68.6787 25.0177 71.24 22.7428 73.144C20.4817 75.048 17.6241 76 14.17 76Z" fill="#D4D4D4"/>
<path d="M44.5687 76C41.5724 76 39.02 75.2898 36.9115 73.8693C34.803 72.4338 33.1869 70.4391 32.0633 67.8853C30.9536 65.3316 30.3987 62.3698 30.3987 59C30.3987 55.6302 30.9536 52.6684 32.0633 50.1147C33.1869 47.5609 34.803 45.5738 36.9115 44.1533C39.02 42.7178 41.5724 42 44.5687 42C47.5511 42 50.0966 42.7178 52.2051 44.1533C54.3275 45.5738 55.9436 47.5609 57.0533 50.1147C58.163 52.6684 58.7179 55.6302 58.7179 59C58.7179 62.3698 58.163 65.3316 57.0533 67.8853C55.9436 70.4391 54.3275 72.4338 52.2051 73.8693C50.0966 75.2898 47.5511 76 44.5687 76ZM44.5687 71.4893C46.6911 71.5196 48.4528 71.0133 49.8538 69.9707C51.2688 68.9129 52.33 67.4471 53.0374 65.5733C53.7449 63.6844 54.0986 61.4933 54.0986 59C54.0986 56.5067 53.7449 54.3307 53.0374 52.472C52.33 50.5982 51.2688 49.14 49.8538 48.0973C48.4528 47.0547 46.6911 46.5258 44.5687 46.5107C42.4463 46.4804 40.6777 46.9867 39.2627 48.0293C37.8617 49.072 36.8074 50.5378 36.1 52.4267C35.3925 54.3156 35.0319 56.5067 35.018 59C35.0041 61.4933 35.3509 63.6769 36.0584 65.5507C36.7658 67.4093 37.827 68.86 39.2419 69.9027C40.6707 70.9453 42.4463 71.4742 44.5687 71.4893Z" fill="#D4D4D4"/>
<path d="M92.251 75.3202V42.6802H110V47.4175H96.5998V56.6202H107.503V61.3802H96.5998V75.3202H92.251Z" fill="#D4D4D4"/>
</g>
<defs>
<clipPath id="clip0_72_899">
<rect width="300" height="76" fill="white"/>
</clipPath>
</defs>
</svg>
