<svg width="161" height="70" viewBox="0 0 161 70" fill="none" xmlns="http://www.w3.org/2000/svg">
<g clip-path="url(#clip0_72_384)">
<path d="M9.30888 61.4468C13.8981 73.587 49.2796 71.4601 88.3356 56.6961C127.392 41.9322 155.332 20.122 150.743 7.9818C146.154 -4.15843 110.772 -2.03148 71.7165 12.7325C32.6605 27.4964 4.71963 49.3066 9.30888 61.4468Z" fill="#CBE162"/>
<path d="M16.1293 25.4156V44H28.0026V41.4576H18.8266V36.2436H26.4539V33.7012H18.8266V27.9581H28.0026V25.4156H16.1293Z" fill="#303030"/>
<path d="M31.102 25.4156V44H38.6132C38.7939 44 39.0176 43.9914 39.2843 43.9742C39.551 43.9656 39.8048 43.9398 40.0458 43.8968C41.0782 43.7333 41.9386 43.3805 42.6269 42.8385C43.3238 42.2964 43.8444 41.6124 44.1885 40.7865C44.5327 39.9605 44.7048 39.0485 44.7048 38.0504C44.7048 36.5706 44.3262 35.2929 43.569 34.2174C42.8119 33.1505 41.6762 32.4837 40.1619 32.217L39.0649 32.0879H33.7993V25.4156H31.102ZM41.9687 25.4156L38.3035 32.9784L41.0266 33.6754L45.0532 25.4156H41.9687ZM33.7993 34.6433H38.51C38.682 34.6433 38.8713 34.6519 39.0778 34.6691C39.2929 34.6863 39.4951 34.7164 39.6844 34.7594C40.235 34.8885 40.6781 35.1251 41.0137 35.4693C41.3492 35.822 41.5902 36.2264 41.7364 36.6824C41.8827 37.1384 41.9558 37.5944 41.9558 38.0504C41.9558 38.5064 41.8827 38.9581 41.7364 39.4055C41.5902 39.8615 41.3492 40.2616 41.0137 40.6058C40.6781 40.9585 40.235 41.1994 39.6844 41.3285C39.4951 41.3801 39.2929 41.4145 39.0778 41.4317C38.8713 41.449 38.682 41.4576 38.51 41.4576H33.7993V34.6433Z" fill="#303030"/>
<path d="M47.8897 25.4156V44H59.763V41.4576H50.587V36.2436H58.2143V33.7012H50.587V27.9581H59.763V25.4156H47.8897Z" fill="#303030"/>
<path d="M80.6835 25.4156V44H92.5569V41.4576H83.3808V36.2436H91.0082V33.7012H83.3808V27.9581H92.5569V25.4156H80.6835Z" fill="#303030"/>
<path d="M95.9144 25.4156V44H98.6117V27.9581H107.026V25.4156H95.9144Z" fill="#303030"/>
<path d="M107.927 25.4156L113.967 44H117.851L123.891 25.4156H121.091L115.528 42.3739H116.225L110.727 25.4156H107.927ZM111.063 29.61V32.1396H120.768V29.61H111.063Z" fill="#303030"/>
<path d="M126.207 25.4156V44H128.943L138.093 30.1908V44H140.829V25.4156H138.093L128.943 39.2378V25.4156H126.207Z" fill="#303030"/>
<path d="M2.74249 43.9675H0V25.4154H2.74249V43.9675Z" fill="#303030"/>
<path d="M10.6473 43.9677H2.74249V41.2252H10.6473V43.9677Z" fill="#303030"/>
<path d="M13.3898 41.3866H10.6473V38.6441H13.3898V41.3866Z" fill="#303030"/>
<path d="M13.3898 38.6441H10.6473V35.9016H13.3898V38.6441Z" fill="#303030"/>
<path d="M10.6473 35.9016H2.74249V33.1591H10.6473V35.9016Z" fill="#303030"/>
<path d="M65.6583 43.9677H62.9158V25.4156H65.6583V43.9677Z" fill="#303030"/>
<path d="M72.111 43.9677H65.6581V41.2252H72.111V43.9677Z" fill="#303030"/>
<path d="M72.111 28.1581H65.6581V25.4156H72.111V28.1581Z" fill="#303030"/>
<path d="M74.8536 41.2252H72.1111V38.4827H74.8536V41.2252Z" fill="#303030"/>
<path d="M77.596 38.4828H74.8535V30.9006H77.596V38.4828Z" fill="#303030"/>
<path d="M74.8536 30.9006H72.1111V28.1581H74.8536V30.9006Z" fill="#303030"/>
<path d="M155.515 43.9677H149.062V41.2252H155.515V43.9677Z" fill="#303030"/>
<path d="M155.515 28.1581H149.062V25.4156H155.515V28.1581Z" fill="#303030"/>
<path d="M158.258 41.2252H155.515V38.4827H158.258V41.2252Z" fill="#303030"/>
<path d="M149.062 41.2252H146.32V38.4827H149.062V41.2252Z" fill="#303030"/>
<path d="M161 38.4828H158.258V30.9006H161V38.4828Z" fill="#303030"/>
<path d="M146.319 38.4828H143.577V30.9006H146.319V38.4828Z" fill="#303030"/>
<path d="M158.258 30.9006H155.515V28.1581H158.258V30.9006Z" fill="#303030"/>
<path d="M149.062 30.9006H146.32V28.1581H149.062V30.9006Z" fill="#303030"/>
</g>
<defs>
<clipPath id="clip0_72_384">
<rect width="161" height="70" fill="white"/>
</clipPath>
</defs>
</svg>
