<svg width="161" height="70" viewBox="0 0 161 70" fill="none" xmlns="http://www.w3.org/2000/svg">
<g clip-path="url(#clip0_72_385)">
<path d="M9.30888 61.4468C13.8981 73.5871 49.2796 71.4601 88.3356 56.6962C127.392 41.9322 155.332 20.1221 150.743 7.98183C146.154 -4.1584 110.772 -2.03145 71.7165 12.7325C32.6605 27.4965 4.71963 49.3066 9.30888 61.4468Z" fill="#CBE162"/>
<path d="M16.1293 25.4155V43.9999H28.0026V41.4575H18.8266V36.2435H26.4539V33.7011H18.8266V27.958H28.0026V25.4155H16.1293Z" fill="#303030"/>
<path d="M31.102 25.4155V43.9999H38.6132C38.7939 43.9999 39.0176 43.9913 39.2843 43.9741C39.551 43.9655 39.8048 43.9397 40.0458 43.8967C41.0782 43.7332 41.9386 43.3804 42.6269 42.8384C43.3238 42.2963 43.8444 41.6123 44.1885 40.7864C44.5327 39.9604 44.7048 39.0484 44.7048 38.0503C44.7048 36.5705 44.3262 35.2928 43.569 34.2173C42.8119 33.1504 41.6762 32.4836 40.1619 32.2169L39.0649 32.0878H33.7993V25.4155H31.102ZM41.9687 25.4155L38.3035 32.9783L41.0266 33.6753L45.0532 25.4155H41.9687ZM33.7993 34.6432H38.51C38.682 34.6432 38.8713 34.6518 39.0778 34.669C39.2929 34.6862 39.4951 34.7163 39.6844 34.7593C40.235 34.8884 40.6781 35.125 41.0137 35.4692C41.3492 35.8219 41.5902 36.2263 41.7364 36.6823C41.8827 37.1383 41.9558 37.5943 41.9558 38.0503C41.9558 38.5063 41.8827 38.958 41.7364 39.4054C41.5902 39.8614 41.3492 40.2615 41.0137 40.6057C40.6781 40.9584 40.235 41.1993 39.6844 41.3284C39.4951 41.38 39.2929 41.4144 39.0778 41.4316C38.8713 41.4489 38.682 41.4575 38.51 41.4575H33.7993V34.6432Z" fill="#303030"/>
<path d="M47.8897 25.4155V43.9999H59.763V41.4575H50.587V36.2435H58.2143V33.7011H50.587V27.958H59.763V25.4155H47.8897Z" fill="#303030"/>
<path d="M80.6835 25.4155V43.9999H92.5569V41.4575H83.3808V36.2435H91.0082V33.7011H83.3808V27.958H92.5569V25.4155H80.6835Z" fill="#303030"/>
<path d="M95.9144 25.4155V43.9999H98.6117V27.958H107.026V25.4155H95.9144Z" fill="#303030"/>
<path d="M107.927 25.4155L113.967 43.9999H117.851L123.891 25.4155H121.091L115.528 42.3738H116.225L110.727 25.4155H107.927ZM111.063 29.6099V32.1395H120.768V29.6099H111.063Z" fill="#303030"/>
<path d="M126.207 25.4155V43.9999H128.943L138.093 30.1907V43.9999H140.829V25.4155H138.093L128.943 39.2377V25.4155H126.207Z" fill="#303030"/>
<path d="M2.74249 43.9675H0V25.4154H2.74249V43.9675Z" fill="#303030"/>
<path d="M10.6473 43.9678H2.74249V41.2253H10.6473V43.9678Z" fill="#303030"/>
<path d="M13.3898 41.3867H10.6473V38.6442H13.3898V41.3867Z" fill="#303030"/>
<path d="M13.3898 38.644H10.6473V35.9016H13.3898V38.644Z" fill="#303030"/>
<path d="M10.6473 35.9016H2.74249V33.1591H10.6473V35.9016Z" fill="#303030"/>
<path d="M65.6583 43.9678H62.9158V25.4157H65.6583V43.9678Z" fill="#303030"/>
<path d="M72.111 43.9678H65.6581V41.2253H72.111V43.9678Z" fill="#303030"/>
<path d="M72.111 28.1582H65.6581V25.4157H72.111V28.1582Z" fill="#303030"/>
<path d="M74.8536 41.2251H72.1111V38.4826H74.8536V41.2251Z" fill="#303030"/>
<path d="M77.596 38.4829H74.8535V30.9008H77.596V38.4829Z" fill="#303030"/>
<path d="M74.8536 30.9006H72.1111V28.1581H74.8536V30.9006Z" fill="#303030"/>
<path d="M155.515 43.9678H149.062V41.2253H155.515V43.9678Z" fill="#303030"/>
<path d="M155.515 28.1582H149.062V25.4157H155.515V28.1582Z" fill="#303030"/>
<path d="M158.258 41.2251H155.515V38.4826H158.258V41.2251Z" fill="#303030"/>
<path d="M149.062 41.2251H146.32V38.4826H149.062V41.2251Z" fill="#303030"/>
<path d="M161 38.4829H158.258V30.9008H161V38.4829Z" fill="#303030"/>
<path d="M146.32 38.4829H143.577V30.9008H146.32V38.4829Z" fill="#303030"/>
<path d="M158.258 30.9006H155.515V28.1581H158.258V30.9006Z" fill="#303030"/>
<path d="M149.062 30.9006H146.32V28.1581H149.062V30.9006Z" fill="#303030"/>
</g>
<defs>
<clipPath id="clip0_72_385">
<rect width="161" height="70" fill="white"/>
</clipPath>
</defs>
</svg>
