<svg width="43" height="37" viewBox="0 0 43 37" fill="none" xmlns="http://www.w3.org/2000/svg">
<path fill-rule="evenodd" clip-rule="evenodd" d="M38.2021 1.22909C38.7169 1.01241 39.2804 0.937675 39.8339 1.01267C40.3874 1.08767 40.9107 1.30965 41.3493 1.65552C41.7879 2.00139 42.1258 2.4585 42.3278 2.97927C42.5298 3.50004 42.5886 4.06543 42.4979 4.61659L37.7729 33.277C37.3146 36.0416 34.2812 37.627 31.7458 36.2499C29.625 35.0978 26.475 33.3228 23.6416 31.4708C22.225 30.5437 17.8854 27.5749 18.4187 25.4624C18.8771 23.6562 26.1687 16.8687 30.3354 12.8333C31.9708 11.2478 31.225 10.3333 29.2937 11.7916C24.4958 15.4124 16.7979 20.9187 14.2521 22.4687C12.0062 23.8353 10.8354 24.0687 9.43539 23.8353C6.88122 23.4103 4.51247 22.752 2.57914 21.9499C-0.0333634 20.8666 0.0937199 17.2749 2.57705 16.2291L38.2021 1.22909Z" fill="#303030"/>
</svg>
