<svg width="22" height="18" viewBox="0 0 22 18" fill="none" xmlns="http://www.w3.org/2000/svg">
<path d="M14.6956 2.60733C13.9134 2.60719 13.1624 2.91407 12.6041 3.46196C12.0458 4.00984 11.7249 4.75496 11.7103 5.53703L11.6815 7.15836C11.68 7.2455 11.66 7.33132 11.6229 7.41019C11.5858 7.48906 11.5325 7.5592 11.4664 7.61598C11.4003 7.67276 11.3229 7.71491 11.2393 7.73965C11.1557 7.76439 11.0679 7.77117 10.9815 7.75953L9.37357 7.54027C7.26019 7.25203 5.23431 6.27924 3.28975 4.65998C2.67519 8.06733 3.87651 10.4278 6.77225 12.2488L8.57063 13.3791C8.65593 13.4327 8.72681 13.5065 8.77708 13.5938C8.82735 13.6811 8.85549 13.7794 8.85905 13.8801C8.8626 13.9808 8.84146 14.0809 8.79747 14.1716C8.75348 14.2622 8.68797 14.3407 8.60666 14.4003L6.96784 15.5985C7.94269 15.6603 8.86813 15.617 9.63607 15.4647C14.4928 14.495 17.7221 10.8406 17.7221 4.81233C17.7221 4.32027 16.6793 2.60733 14.6956 2.60733ZM9.65151 5.49997C9.66948 4.50767 9.97978 3.54272 10.5436 2.72594C11.1073 1.90915 11.8995 1.27683 12.821 0.908147C13.7424 0.53946 14.7522 0.450792 15.7238 0.653244C16.6953 0.855696 17.5856 1.34027 18.2831 2.0463C19.015 2.04115 19.6378 2.22645 21.0296 1.3813C20.6858 3.06953 20.5149 3.8035 19.7809 4.8113C19.7809 12.677 14.9458 16.5034 10.0386 17.4823C6.67548 18.1535 1.78269 17.051 0.38269 15.5862C1.09607 15.5316 3.99901 15.2197 5.67696 13.9906C4.25637 13.0538 -1.39304 9.7288 2.32004 0.791446C4.06284 2.82659 5.83034 4.21115 7.62151 4.94718C8.81254 5.43615 9.10593 5.42586 9.65254 5.501L9.65151 5.49997Z" fill="#303030"/>
</svg>
