<svg width="824" height="297" viewBox="0 0 824 297" fill="none" xmlns="http://www.w3.org/2000/svg">
<g clip-path="url(#clip0_72_711)">
<path d="M683.457 150.599L540.409 188.564C534.537 190.123 531.04 196.146 532.599 202.018L539.012 226.181C540.57 232.053 546.594 235.55 552.466 233.992L695.513 196.026C701.385 194.468 704.882 188.444 703.323 182.572L696.91 158.409C695.352 152.537 689.328 149.04 683.457 150.599Z" fill="#E7B9E2" stroke="#303030" stroke-width="2"/>
<path d="M654.579 97.3804L508.816 71.747C502.832 70.6948 497.129 74.6922 496.077 80.6756L491.747 105.298C490.695 111.281 494.692 116.984 500.675 118.037L646.439 143.67C652.422 144.722 658.125 140.725 659.178 134.742L663.508 110.119C664.56 104.136 660.562 98.4326 654.579 97.3804Z" fill="#E7B9E2" stroke="#303030" stroke-width="2"/>
<path d="M376.601 81.652L228.914 91.268C222.851 91.6627 218.257 96.8971 218.652 102.959L220.276 127.907C220.671 133.969 225.905 138.563 231.967 138.169L379.655 128.553C385.717 128.158 390.312 122.924 389.917 116.861L388.293 91.9141C387.898 85.8518 382.663 81.2573 376.601 81.652Z" fill="#E7B9E2" stroke="#303030" stroke-width="2"/>
<path d="M498 129.913L351.563 108.46C345.552 107.58 339.965 111.739 339.085 117.75L335.461 142.486C334.58 148.497 338.739 154.083 344.75 154.964L491.187 176.417C497.198 177.298 502.785 173.139 503.665 167.128L507.289 142.392C508.17 136.381 504.011 130.794 498 129.913Z" fill="#E7B9E2" stroke="#303030" stroke-width="2"/>
<path d="M219.279 176.897L71.8707 190.119C65.8199 190.662 61.3546 196.007 61.8974 202.058L64.1308 226.958C64.6735 233.009 70.0187 237.474 76.0695 236.931L223.478 223.71C229.529 223.167 233.994 217.822 233.451 211.771L231.218 186.871C230.675 180.82 225.33 176.355 219.279 176.897Z" fill="#E7B9E2" stroke="#303030" stroke-width="2"/>
<path d="M142.19 23.4009L8.59625 87.0935C3.11247 89.708 0.786434 96.2729 3.4009 101.757L14.1598 124.323C16.7742 129.807 23.3392 132.133 28.8229 129.518L162.417 65.8259C167.9 63.2115 170.226 56.6465 167.612 51.1628L156.853 28.5963C154.239 23.1125 147.674 20.7865 142.19 23.4009Z" fill="#E7B9E2" stroke="#303030" stroke-width="2"/>
<path d="M367.385 199.825L219.884 211.972C213.829 212.471 209.325 217.783 209.824 223.838L211.876 248.754C212.374 254.808 217.687 259.312 223.742 258.814L371.242 246.666C377.297 246.167 381.801 240.855 381.302 234.8L379.25 209.885C378.752 203.83 373.439 199.326 367.385 199.825Z" fill="#E7B9E2" stroke="#303030" stroke-width="2"/>
<path d="M796.554 244.512L654.815 201.921C648.997 200.172 642.863 203.472 641.114 209.29L633.92 233.232C632.172 239.05 635.471 245.184 641.289 246.932L783.028 289.523C788.847 291.272 794.98 287.972 796.729 282.154L803.923 258.212C805.671 252.394 802.372 246.26 796.554 244.512Z" fill="#E7B9E2" stroke="#303030" stroke-width="2"/>
<path d="M586.852 207.277L583.95 196.343L580.285 197.316L579.904 195.878L588.78 193.522L589.162 194.96L585.497 195.933L588.399 206.866L586.852 207.277ZM598.531 204.425C597.211 204.776 596.062 204.562 595.083 203.784C594.114 203.004 593.393 201.722 592.92 199.938C592.321 197.681 592.223 195.897 592.625 194.587C593.025 193.267 593.944 192.383 595.381 191.935L596.664 191.529C596.968 191.426 597.167 191.301 597.26 191.155C597.354 191.009 597.37 190.8 597.309 190.53L598.778 190.14C598.924 190.73 598.956 191.202 598.873 191.555C598.8 191.905 598.615 192.186 598.318 192.397C598.031 192.606 597.634 192.794 597.127 192.962L595.787 193.4C594.963 193.663 594.392 194.135 594.076 194.814C593.768 195.481 593.694 196.367 593.855 197.472L594.04 197.423C594.182 196.878 594.451 196.414 594.847 196.034C595.242 195.653 595.749 195.38 596.368 195.216C597.152 195.008 597.876 195.014 598.542 195.235C599.217 195.453 599.8 195.861 600.29 196.459C600.79 197.055 601.164 197.817 601.41 198.745C601.656 199.673 601.701 200.527 601.544 201.308C601.397 202.086 601.065 202.748 600.548 203.294C600.038 203.827 599.366 204.204 598.531 204.425ZM598.208 203.021C599.012 202.808 599.566 202.357 599.869 201.67C600.172 200.982 600.191 200.139 599.925 199.139C599.66 198.139 599.225 197.415 598.621 196.969C598.027 196.519 597.328 196.401 596.524 196.615C595.72 196.828 595.166 197.279 594.863 197.966C594.56 198.653 594.541 199.497 594.806 200.497C595.072 201.497 595.507 202.221 596.111 202.667C596.715 203.114 597.414 203.232 598.208 203.021ZM605.57 202.309L603.116 193.061L604.585 192.671L606.104 198.393L606.726 200.926L606.897 200.881L608.018 191.76L610.539 191.091L612.993 200.339L611.524 200.728L609.998 194.976L609.383 192.474L609.213 192.519L608.091 201.64L605.57 202.309ZM615.658 199.764L615.297 198.403L615.576 198.329C615.844 198.258 616.058 198.173 616.22 198.075C616.389 197.964 616.501 197.802 616.554 197.589C616.619 197.373 616.627 197.073 616.58 196.688C616.541 196.29 616.452 195.768 616.313 195.12L615.12 189.875L621.213 188.258L623.667 197.506L622.182 197.9L620.097 190.044L616.865 190.902L617.835 195.18C618.023 196.013 618.122 196.698 618.133 197.236C618.151 197.761 618.086 198.181 617.938 198.497C617.787 198.802 617.557 199.039 617.249 199.209C616.941 199.379 616.56 199.524 616.107 199.645L615.658 199.764ZM627.227 196.561L624.773 187.313L626.242 186.923L627.76 192.645L628.383 195.178L628.553 195.133L629.675 186.012L632.196 185.343L634.65 194.591L633.181 194.981L631.654 189.228L631.04 186.726L630.869 186.771L629.748 195.892L627.227 196.561ZM642.029 192.881C641.194 193.102 640.422 193.103 639.712 192.883C639 192.653 638.383 192.22 637.862 191.586C637.34 190.952 636.948 190.14 636.686 189.151C636.418 188.14 636.356 187.224 636.502 186.402C636.648 185.579 636.984 184.889 637.509 184.33C638.031 183.761 638.725 183.362 639.591 183.132C640.344 182.932 641.039 182.913 641.678 183.075C642.317 183.236 642.871 183.558 643.341 184.04C643.822 184.52 644.18 185.142 644.416 185.907L643.055 186.268C642.729 185.538 642.295 185.024 641.752 184.727C641.207 184.419 640.594 184.355 639.914 184.536C639.058 184.763 638.48 185.248 638.181 185.989C637.878 186.721 637.875 187.643 638.17 188.757C638.46 189.849 638.906 190.636 639.508 191.116C640.118 191.583 640.835 191.708 641.66 191.489C642.279 191.325 642.745 191.002 643.059 190.522C643.373 190.041 643.518 189.445 643.495 188.734L644.856 188.373C644.985 189.111 644.955 189.787 644.764 190.4C644.574 191.013 644.244 191.537 643.774 191.97C643.312 192.391 642.73 192.694 642.029 192.881ZM648.883 190.813L646.429 181.565L647.898 181.175L649.417 186.897L650.039 189.43L650.21 189.385L651.331 180.264L653.852 179.595L656.306 188.843L654.837 189.233L653.31 183.48L652.696 180.978L652.526 181.023L651.404 190.144L648.883 190.813Z" fill="#303030"/>
<path d="M545.465 108.652L547.682 96.0457L555.088 97.3482L554.831 98.8137L549 97.7883L548.327 101.618L550.738 102.042C551.536 102.182 552.198 102.45 552.724 102.846C553.261 103.243 553.639 103.743 553.858 104.345C554.077 104.946 554.12 105.626 553.987 106.382C553.856 107.128 553.585 107.746 553.173 108.237C552.762 108.728 552.236 109.074 551.594 109.275C550.964 109.468 550.25 109.494 549.452 109.353L545.465 108.652ZM547.299 107.464L549.773 107.899C550.476 108.023 551.062 107.925 551.53 107.607C552.01 107.28 552.311 106.769 552.432 106.076C552.554 105.383 552.445 104.806 552.103 104.345C551.774 103.875 551.258 103.579 550.554 103.455L548.08 103.02L547.299 107.464ZM563.21 105.778L562.972 107.133L559.947 107.056C559.449 107.056 559.056 107.165 558.769 107.385C558.483 107.595 558.304 107.905 558.232 108.314C558.161 108.714 558.246 109.064 558.485 109.366C558.737 109.659 559.104 109.849 559.588 109.934C560.071 110.019 560.532 109.981 560.972 109.82C561.412 109.659 561.782 109.404 562.081 109.056C562.391 108.71 562.589 108.295 562.674 107.812L563.1 105.385C563.215 104.734 563.11 104.19 562.786 103.754C562.473 103.32 561.974 103.043 561.292 102.923C560.808 102.838 560.368 102.847 559.971 102.95C559.575 103.043 559.23 103.221 558.935 103.483C558.65 103.747 558.432 104.093 558.281 104.522L556.831 104.267C557.01 103.562 557.323 102.983 557.77 102.531C558.22 102.069 558.768 101.753 559.415 101.586C560.064 101.407 560.787 101.388 561.586 101.529C562.731 101.73 563.561 102.179 564.078 102.877C564.606 103.565 564.776 104.451 564.585 105.533L563.48 111.82L562.014 111.563L562.175 110.649L561.734 110.571C561.417 110.894 561.026 111.118 560.56 111.242C560.104 111.367 559.583 111.379 558.994 111.275C558.416 111.174 557.932 110.975 557.54 110.678C557.16 110.373 556.89 110.001 556.729 109.561C556.568 109.121 556.535 108.633 556.629 108.097C556.766 107.32 557.119 106.727 557.689 106.318C558.27 105.911 559.03 105.715 559.97 105.728L563.21 105.778ZM570.227 113.007L571.635 105.002L568.483 104.447L568.733 103.029L576.549 104.404L576.299 105.822L573.148 105.268L571.74 113.273L570.227 113.007ZM579.341 104.895L580.964 105.18L582.258 112.881L583.282 113.061L582.629 114.375L580.895 114.071L579.341 104.895ZM588.055 106.427L582.535 116.666C582.216 117.249 581.827 117.673 581.368 117.939C580.91 118.205 580.424 118.293 579.909 118.202C579.152 118.069 578.601 117.756 578.255 117.262C577.907 116.778 577.772 116.126 577.851 115.306L579.238 115.55C579.287 115.948 579.376 116.246 579.504 116.441C579.63 116.648 579.824 116.774 580.087 116.82C580.329 116.863 580.537 116.818 580.712 116.686C580.897 116.556 581.083 116.329 581.27 116.005L586.543 106.161L588.055 106.427ZM588.907 116.292L590.564 106.868L593.038 107.303L593.488 114.352L593.646 114.38L596.458 107.905L598.853 108.326L597.196 117.749L595.793 117.503L596.586 112.996L597.301 109.207L597.128 109.176L594.402 115.439L592.322 115.073L591.896 108.256L591.722 108.226L591.102 112.032L590.309 116.538L588.907 116.292ZM600.303 118.296L601.96 108.873L603.457 109.136L602.432 114.966L601.933 117.527L602.106 117.557L606.956 109.751L609.524 110.203L607.867 119.626L606.37 119.363L607.401 113.501L607.894 110.972L607.721 110.942L602.872 118.748L600.303 118.296Z" fill="#303030"/>
<path d="M279.152 118.06L278.417 106.772L274.25 107.044L274.153 105.559L279.917 105.184L280.748 117.956L279.152 118.06ZM271.512 118.686L271.416 117.201L271.655 117.186C271.911 117.169 272.137 117.122 272.335 117.045C272.544 116.967 272.715 116.807 272.849 116.563C272.983 116.319 273.076 115.939 273.128 115.422C273.19 114.905 273.208 114.198 273.182 113.302L272.955 105.637L274.472 105.538L274.731 114.195C274.763 115.016 274.733 115.703 274.641 116.254C274.558 116.794 274.426 117.224 274.244 117.546C274.072 117.857 273.862 118.089 273.616 118.244C273.369 118.389 273.097 118.487 272.801 118.538C272.517 118.599 272.22 118.64 271.911 118.66L271.512 118.686ZM287.952 117.728C287.09 117.784 286.326 117.631 285.661 117.268C284.996 116.905 284.464 116.362 284.064 115.64C283.674 114.907 283.446 114.024 283.378 112.991C283.311 111.959 283.424 111.059 283.716 110.291C284.018 109.524 284.476 108.917 285.088 108.47C285.7 108.014 286.437 107.757 287.299 107.701C288.172 107.644 288.936 107.803 289.591 108.177C290.256 108.54 290.783 109.083 291.172 109.806C291.572 110.528 291.805 111.406 291.872 112.438C291.94 113.471 291.822 114.376 291.52 115.155C291.228 115.922 290.776 116.529 290.164 116.975C289.562 117.42 288.825 117.671 287.952 117.728ZM287.858 116.291C288.72 116.235 289.365 115.878 289.793 115.219C290.231 114.56 290.413 113.666 290.34 112.538C290.266 111.41 289.97 110.547 289.45 109.95C288.94 109.353 288.255 109.082 287.393 109.138C286.541 109.194 285.896 109.551 285.458 110.21C285.02 110.869 284.838 111.763 284.911 112.891C284.985 114.02 285.281 114.882 285.801 115.479C286.321 116.076 287.007 116.346 287.858 116.291ZM295.443 117L294.822 107.452L296.355 107.352L296.623 111.471L300.902 111.193L300.634 107.073L302.166 106.974L302.788 116.521L301.255 116.621L300.995 112.63L296.716 112.908L296.976 116.9L295.443 117ZM305.806 118.746L305.555 114.898L306.194 114.857C306.37 114.61 306.514 114.349 306.624 114.075C306.734 113.79 306.814 113.453 306.863 113.065C306.923 112.677 306.962 112.198 306.978 111.631C306.995 111.063 306.993 110.379 306.973 109.579C306.952 108.768 306.921 107.797 306.879 106.667L313.154 106.258L313.682 114.369L314.848 114.293L315.098 118.141L313.661 118.235L313.504 115.824L307.086 116.242L307.243 118.653L305.806 118.746ZM307.886 114.746L312.149 114.469L311.715 107.795L308.378 108.012C308.404 109.069 308.419 109.96 308.424 110.687C308.428 111.403 308.414 112.008 308.382 112.502C308.36 112.995 308.308 113.42 308.224 113.778C308.151 114.125 308.038 114.448 307.886 114.746ZM321.49 115.544C320.628 115.6 319.864 115.447 319.199 115.084C318.534 114.721 318.002 114.179 317.602 113.456C317.213 112.723 316.984 111.84 316.917 110.807C316.85 109.775 316.962 108.875 317.254 108.108C317.557 107.34 318.014 106.733 318.627 106.287C319.238 105.83 319.975 105.574 320.837 105.517C321.71 105.461 322.474 105.619 323.129 105.994C323.794 106.356 324.321 106.899 324.71 107.622C325.11 108.345 325.344 109.222 325.411 110.254C325.478 111.287 325.361 112.192 325.059 112.971C324.766 113.738 324.314 114.345 323.702 114.791C323.1 115.236 322.363 115.487 321.49 115.544ZM321.397 114.107C322.259 114.051 322.904 113.694 323.331 113.035C323.769 112.376 323.951 111.482 323.878 110.354C323.805 109.226 323.508 108.363 322.988 107.767C322.479 107.169 321.793 106.898 320.931 106.954C320.079 107.01 319.435 107.367 318.996 108.026C318.558 108.686 318.376 109.579 318.45 110.708C318.523 111.836 318.82 112.698 319.34 113.295C319.859 113.892 320.545 114.163 321.397 114.107ZM328.982 114.816L328.36 105.268L329.893 105.168L330.161 109.288L334.44 109.009L334.172 104.89L335.705 104.79L336.326 114.338L334.794 114.438L334.534 110.446L330.255 110.725L330.515 114.716L328.982 114.816Z" fill="#303030"/>
<path d="M384.189 143.56L386.044 130.895L389.622 131.419C390.91 131.608 391.873 132.062 392.511 132.781C393.162 133.49 393.409 134.378 393.253 135.444C393.16 136.078 392.911 136.602 392.505 137.017C392.101 137.421 391.585 137.669 390.957 137.76L390.922 137.997C391.568 138.297 392.038 138.732 392.332 139.304C392.626 139.875 392.718 140.53 392.61 141.269C392.452 142.345 391.943 143.133 391.083 143.632C390.223 144.132 389.118 144.282 387.767 144.084L384.189 143.56ZM385.985 142.336L387.98 142.628C388.877 142.759 389.585 142.674 390.103 142.373C390.634 142.063 390.948 141.575 391.045 140.91C391.146 140.224 390.986 139.662 390.565 139.223C390.155 138.785 389.501 138.501 388.604 138.369L386.609 138.077L385.985 142.336ZM386.811 136.7L388.806 136.992C389.65 137.116 390.319 137.036 390.814 136.753C391.32 136.46 391.622 135.982 391.719 135.317C391.815 134.662 391.668 134.123 391.277 133.699C390.886 133.276 390.264 133.001 389.409 132.876L387.414 132.584L386.811 136.7ZM401.86 140.182L401.661 141.543L398.636 141.553C398.138 141.566 397.748 141.687 397.467 141.915C397.187 142.133 397.017 142.448 396.956 142.859C396.898 143.26 396.992 143.609 397.24 143.904C397.5 144.19 397.873 144.368 398.358 144.439C398.844 144.51 399.304 144.459 399.739 144.286C400.174 144.112 400.536 143.847 400.826 143.491C401.126 143.136 401.311 142.716 401.382 142.23L401.74 139.792C401.835 139.138 401.715 138.598 401.379 138.171C401.053 137.746 400.547 137.483 399.861 137.383C399.375 137.311 398.936 137.333 398.542 137.448C398.149 137.552 397.809 137.74 397.521 138.01C397.244 138.282 397.036 138.634 396.898 139.067L395.441 138.853C395.599 138.144 395.895 137.556 396.33 137.092C396.766 136.617 397.305 136.286 397.947 136.1C398.59 135.903 399.313 135.863 400.115 135.981C401.265 136.149 402.108 136.575 402.645 137.257C403.193 137.93 403.387 138.81 403.228 139.897L402.303 146.214L400.83 145.998L400.965 145.08L400.522 145.015C400.214 145.347 399.829 145.582 399.367 145.719C398.916 145.858 398.395 145.884 397.804 145.797C397.223 145.712 396.733 145.527 396.332 145.242C395.944 144.948 395.664 144.584 395.49 144.149C395.317 143.713 395.269 143.227 395.348 142.689C395.463 141.908 395.799 141.305 396.357 140.88C396.926 140.456 397.68 140.238 398.62 140.225L401.86 140.182ZM405.594 149.93L407.445 137.297L408.964 137.52L408.823 138.485L409.266 138.55C409.543 138.203 409.914 137.955 410.378 137.808C410.852 137.661 411.353 137.627 411.88 137.704C412.661 137.819 413.312 138.124 413.832 138.621C414.354 139.107 414.714 139.742 414.911 140.525C415.12 141.311 415.149 142.215 414.999 143.239C414.849 144.263 414.561 145.126 414.135 145.829C413.72 146.523 413.193 147.028 412.554 147.344C411.915 147.66 411.205 147.761 410.424 147.646C409.896 147.569 409.426 147.392 409.014 147.116C408.612 146.842 408.327 146.504 408.16 146.102L407.717 146.037L407.114 150.153L405.594 149.93ZM410.332 146.177C411.166 146.299 411.855 146.082 412.4 145.526C412.956 144.972 413.315 144.135 413.479 143.016C413.643 141.897 413.539 140.993 413.165 140.302C412.803 139.613 412.205 139.207 411.371 139.085C410.537 138.963 409.842 139.179 409.287 139.734C408.731 140.288 408.371 141.125 408.208 142.244C408.044 143.363 408.148 144.267 408.521 144.958C408.895 145.649 409.498 146.055 410.332 146.177ZM416.383 148.277L417.77 138.81L419.194 139.018L418.016 147.06L420.422 147.413L421.601 139.371L423.025 139.58L421.847 147.622L424.254 147.974L425.432 139.932L426.857 140.141L425.47 149.608L416.383 148.277ZM435.115 145.054L434.915 146.415L431.89 146.425C431.392 146.438 431.002 146.559 430.721 146.787C430.441 147.005 430.271 147.32 430.211 147.731C430.152 148.132 430.247 148.48 430.494 148.775C430.754 149.061 431.127 149.24 431.613 149.311C432.098 149.382 432.558 149.331 432.993 149.158C433.429 148.984 433.791 148.719 434.08 148.363C434.38 148.008 434.566 147.588 434.637 147.102L434.994 144.664C435.09 144.01 434.97 143.469 434.633 143.043C434.307 142.618 433.801 142.355 433.115 142.254C432.63 142.183 432.19 142.205 431.796 142.32C431.403 142.424 431.063 142.611 430.776 142.882C430.499 143.154 430.291 143.506 430.152 143.939L428.695 143.725C428.853 143.015 429.15 142.428 429.584 141.963C430.02 141.488 430.559 141.158 431.201 140.971C431.844 140.775 432.567 140.735 433.369 140.852C434.52 141.021 435.363 141.446 435.899 142.129C436.447 142.802 436.642 143.682 436.482 144.769L435.557 151.086L434.085 150.87L434.219 149.952L433.776 149.887C433.469 150.219 433.084 150.454 432.622 150.591C432.17 150.73 431.649 150.756 431.058 150.669C430.477 150.584 429.987 150.399 429.587 150.114C429.199 149.82 428.918 149.455 428.744 149.02C428.571 148.585 428.524 148.099 428.603 147.56C428.717 146.779 429.053 146.176 429.611 145.751C430.18 145.328 430.934 145.11 431.874 145.096L435.115 145.054ZM439.74 151.698L441.126 142.231L445.116 142.816C446.118 142.963 446.855 143.308 447.325 143.851C447.807 144.385 447.988 145.069 447.865 145.903C447.802 146.336 447.624 146.703 447.332 147.005C447.05 147.309 446.694 147.499 446.262 147.576L446.234 147.766C446.675 147.993 446.999 148.32 447.206 148.749C447.414 149.168 447.481 149.631 447.407 150.137C447.285 150.971 446.91 151.579 446.282 151.961C445.657 152.333 444.842 152.446 443.84 152.299L439.74 151.698ZM441.466 150.512L444.046 150.89C444.584 150.969 445.013 150.913 445.332 150.723C445.651 150.532 445.842 150.221 445.906 149.788C445.969 149.355 445.875 149.002 445.624 148.728C445.373 148.454 444.979 148.278 444.44 148.199L441.86 147.821L441.466 150.512ZM442.052 146.507L444.538 146.871C445.066 146.948 445.489 146.892 445.808 146.701C446.138 146.512 446.333 146.207 446.395 145.785C446.455 145.373 446.355 145.029 446.093 144.754C445.842 144.48 445.453 144.304 444.925 144.227L442.44 143.863L442.052 146.507ZM457.284 148.302L457.085 149.663L454.06 149.673C453.562 149.686 453.172 149.807 452.891 150.035C452.611 150.253 452.441 150.567 452.38 150.979C452.322 151.38 452.416 151.728 452.664 152.023C452.924 152.309 453.297 152.488 453.782 152.559C454.268 152.63 454.728 152.579 455.163 152.405C455.598 152.232 455.96 151.967 456.25 151.611C456.55 151.256 456.735 150.835 456.806 150.35L457.164 147.912C457.259 147.258 457.139 146.717 456.803 146.291C456.477 145.865 455.971 145.603 455.285 145.502C454.8 145.431 454.36 145.453 453.966 145.568C453.573 145.672 453.233 145.859 452.945 146.13C452.668 146.402 452.46 146.754 452.322 147.186L450.865 146.973C451.023 146.263 451.319 145.676 451.754 145.211C452.19 144.736 452.729 144.405 453.371 144.219C454.014 144.022 454.737 143.983 455.539 144.1C456.689 144.269 457.533 144.694 458.069 145.376C458.617 146.05 458.811 146.93 458.652 148.017L457.727 154.333L456.254 154.118L456.389 153.2L455.946 153.135C455.638 153.467 455.253 153.702 454.791 153.839C454.34 153.977 453.819 154.003 453.228 153.917C452.647 153.832 452.157 153.647 451.756 153.362C451.368 153.068 451.088 152.703 450.914 152.268C450.741 151.833 450.693 151.346 450.772 150.808C450.887 150.027 451.223 149.424 451.781 148.999C452.35 148.576 453.104 148.358 454.044 148.344L457.284 148.302Z" fill="#303030"/>
<path d="M116.024 216.279L114.881 203.53L117.431 203.302L119.853 210.602L120.012 210.588L121.08 202.974L123.55 202.753L124.694 215.502L123.243 215.632L122.544 207.839L122.248 203.994L122.072 204.01L121.051 211.427L118.9 211.62L116.559 204.504L116.383 204.52L116.776 208.356L117.475 216.149L116.024 216.279ZM133.253 208.806L133.376 210.177L130.436 210.89C129.955 211.019 129.604 211.227 129.383 211.515C129.162 211.792 129.07 212.137 129.107 212.551C129.143 212.955 129.316 213.272 129.626 213.501C129.945 213.719 130.349 213.806 130.838 213.762C131.327 213.718 131.762 213.561 132.145 213.291C132.528 213.021 132.818 212.679 133.017 212.265C133.226 211.85 133.309 211.398 133.265 210.909L133.045 208.455C132.985 207.797 132.743 207.299 132.316 206.962C131.9 206.625 131.347 206.487 130.657 206.549C130.168 206.593 129.745 206.716 129.389 206.92C129.031 207.112 128.744 207.374 128.527 207.704C128.321 208.033 128.201 208.424 128.167 208.877L126.701 209.008C126.689 208.281 126.84 207.641 127.155 207.088C127.468 206.524 127.916 206.077 128.496 205.747C129.076 205.406 129.77 205.199 130.577 205.126C131.735 205.023 132.654 205.24 133.335 205.779C134.024 206.306 134.418 207.117 134.517 208.211L135.087 214.569L133.605 214.702L133.522 213.778L133.076 213.818C132.854 214.213 132.535 214.53 132.117 214.771C131.71 215.011 131.209 215.158 130.614 215.211C130.03 215.264 129.51 215.198 129.055 215.014C128.609 214.818 128.251 214.529 127.981 214.146C127.711 213.764 127.552 213.301 127.503 212.76C127.432 211.973 127.619 211.309 128.063 210.766C128.518 210.221 129.2 209.834 130.111 209.602L133.253 208.806ZM138.254 216.711L137.91 212.87L138.547 212.813C138.717 212.562 138.854 212.298 138.958 212.021C139.061 211.734 139.132 211.395 139.172 211.006C139.223 210.616 139.249 210.137 139.252 209.569C139.255 209.001 139.236 208.318 139.197 207.518C139.156 206.708 139.101 205.738 139.032 204.609L145.295 204.047L146.021 212.143L147.184 212.038L147.529 215.879L146.095 216.008L145.879 213.601L139.472 214.176L139.688 216.582L138.254 216.711ZM140.236 212.662L144.491 212.28L143.894 205.619L140.563 205.917C140.615 206.973 140.652 207.864 140.674 208.59C140.696 209.306 140.696 209.911 140.676 210.405C140.667 210.899 140.625 211.326 140.55 211.686C140.485 212.034 140.38 212.36 140.236 212.662ZM150.311 216.417L149.17 203.7L150.7 203.562L150.788 204.535L151.234 204.495C151.423 204.092 151.725 203.765 152.142 203.513C152.569 203.261 153.048 203.111 153.579 203.063C154.365 202.993 155.069 203.138 155.691 203.5C156.311 203.852 156.809 204.385 157.184 205.101C157.569 205.816 157.808 206.689 157.901 207.72C157.993 208.75 157.914 209.657 157.663 210.44C157.421 211.211 157.026 211.825 156.478 212.281C155.93 212.737 155.263 213.001 154.477 213.071C153.946 213.119 153.447 213.056 152.982 212.884C152.528 212.71 152.172 212.448 151.916 212.096L151.469 212.136L151.841 216.279L150.311 216.417ZM154.045 211.664C154.885 211.589 155.505 211.217 155.905 210.549C156.317 209.881 156.472 208.983 156.371 207.857C156.27 206.731 155.957 205.875 155.434 205.29C154.921 204.705 154.244 204.449 153.405 204.525C152.566 204.6 151.941 204.972 151.529 205.641C151.118 206.309 150.963 207.207 151.064 208.333C151.165 209.459 151.477 210.315 152.001 210.9C152.525 211.484 153.206 211.739 154.045 211.664ZM161.168 212.23L160.313 202.7L161.827 202.564L162.356 208.461L162.541 211.063L162.716 211.047L165.365 202.247L167.962 202.014L168.817 211.544L167.303 211.68L166.771 205.751L166.589 203.181L166.414 203.197L163.765 211.997L161.168 212.23ZM171.729 213.708L171.385 209.868L172.022 209.811C172.192 209.56 172.329 209.296 172.433 209.019C172.536 208.731 172.607 208.393 172.647 208.004C172.698 207.613 172.724 207.134 172.727 206.567C172.73 205.999 172.711 205.315 172.672 204.515C172.631 203.705 172.576 202.735 172.507 201.606L178.77 201.045L179.496 209.14L180.659 209.036L181.004 212.876L179.57 213.005L179.354 210.599L172.947 211.173L173.163 213.58L171.729 213.708ZM173.711 209.659L177.966 209.277L177.369 202.616L174.038 202.915C174.09 203.971 174.127 204.861 174.149 205.588C174.171 206.303 174.171 206.908 174.151 207.403C174.142 207.896 174.1 208.323 174.025 208.683C173.96 209.032 173.855 209.357 173.711 209.659Z" fill="#303030"/>
<path d="M49.298 100.924L43.7895 89.3694L45.2337 88.6808L47.6437 93.7357L51.9765 91.67L49.5665 86.6151L51.0107 85.9266L56.5193 97.4806L55.075 98.1692L52.6237 93.0276L48.291 95.0933L50.7423 100.235L49.298 100.924ZM60.2339 95.7096L56.1162 87.073L57.5027 86.412L58.9074 89.3582L61.0738 88.3254C62.0366 87.8663 62.9141 87.7611 63.7062 88.0098C64.4937 88.2488 65.0986 88.8112 65.5209 89.697C65.9479 90.5925 66.0063 91.4214 65.6961 92.1837C65.386 92.946 64.7496 93.5567 63.7867 94.0157L60.2339 95.7096ZM61.0006 93.7488L63.167 92.7159C63.7158 92.4543 64.0704 92.1198 64.2307 91.7125C64.4007 91.3006 64.3663 90.8443 64.1276 90.3436C63.8935 89.8526 63.5629 89.5434 63.1359 89.4161C62.7185 89.2842 62.2354 89.3491 61.6866 89.6108L59.5202 90.6436L61.0006 93.7488ZM74.8836 88.991C74.2 89.317 73.5539 89.4241 72.9453 89.3125C72.3321 89.1913 71.7493 88.8487 71.1969 88.2849C70.6495 87.7069 70.1348 86.9124 69.6528 85.9014C69.1708 84.8904 68.8822 84 68.7869 83.23C68.6966 82.4459 68.7997 81.7822 69.0962 81.2391C69.388 80.6864 69.8758 80.247 70.5594 79.9211C71.2334 79.5998 71.877 79.4997 72.4902 79.621C73.0988 79.7326 73.6745 80.0726 74.2173 80.641C74.7651 81.1952 75.28 81.9778 75.762 82.9887C76.244 83.9997 76.5324 84.9021 76.6273 85.6959C76.7271 86.4755 76.6311 87.1416 76.3393 87.6944C76.0428 88.2375 75.5576 88.6697 74.8836 88.991ZM68.9744 91.5424L64.8568 82.9058L66.2433 82.2448L68.0198 85.9709L69.6373 85.1998L70.257 86.4996L68.6395 87.2708L70.3609 90.8814L68.9744 91.5424ZM74.235 87.705C74.6201 87.5214 74.8828 87.2543 75.023 86.9039C75.1631 86.5535 75.181 86.1077 75.0767 85.5666C74.9723 85.0255 74.7434 84.3843 74.39 83.6429C74.0365 82.9015 73.6847 82.3248 73.3346 81.9126C72.9845 81.5005 72.6292 81.2386 72.2687 81.1269C71.9082 81.0151 71.5354 81.0511 71.1502 81.2347C70.7651 81.4183 70.5024 81.6854 70.3623 82.0358C70.2317 82.3816 70.2163 82.8203 70.3161 83.3518C70.4159 83.8832 70.6425 84.5196 70.996 85.261C71.3494 86.0024 71.7035 86.584 72.0582 87.0057C72.4129 87.4275 72.7657 87.6965 73.1165 87.8128C73.4771 87.9245 73.8499 87.8886 74.235 87.705ZM77.1389 82.226L76.5329 80.955L84.5341 77.1403L85.14 78.4113L77.1389 82.226ZM97.0708 78.1471L95.6699 78.815L92.0067 71.1316L90.6667 68.1722L90.5078 68.2479L92.1026 80.5158L89.6473 81.6863L84.1388 70.1323L85.5397 69.4644L89.196 77.1334L90.5429 80.1072L90.7018 80.0315L89.107 67.7636L91.5623 66.593L97.0708 78.1471ZM85.1252 65.6206C85.3285 65.9727 85.5701 66.1943 85.8499 66.2855C86.1393 66.372 86.4573 66.3327 86.8039 66.1674C87.1602 65.9976 87.391 65.7753 87.4963 65.5005C87.6017 65.2258 87.5816 64.8986 87.436 64.5189L88.6781 63.9267C88.9558 64.6333 88.9775 65.2611 88.7429 65.8102C88.5038 66.3496 88.0135 66.796 87.2721 67.1495C86.5308 67.503 85.8752 67.6028 85.3056 67.449C84.741 67.2809 84.2668 66.8689 83.8831 66.2128L85.1252 65.6206ZM103.575 75.312C102.795 75.6839 102.029 75.8245 101.277 75.7341C100.525 75.6436 99.8292 75.3372 99.1901 74.8147C98.5561 74.2779 98.0164 73.5426 97.5712 72.6087C97.1259 71.6747 96.8966 70.7973 96.8834 69.9764C96.8798 69.1509 97.0796 68.4175 97.4829 67.7762C97.8816 67.1253 98.4709 66.6139 99.2508 66.2421C100.04 65.8657 100.809 65.7298 101.556 65.8345C102.308 65.9249 102.999 66.2337 103.628 66.7608C104.267 67.2833 104.809 68.0115 105.255 68.9455C105.7 69.8794 105.927 70.7639 105.935 71.599C105.948 72.4199 105.753 73.151 105.35 73.7923C104.956 74.429 104.365 74.9356 103.575 75.312ZM102.955 74.0122C103.735 73.6404 104.202 73.0694 104.354 72.2994C104.517 71.5247 104.355 70.6271 103.868 69.6065C103.382 68.5859 102.786 67.8948 102.082 67.5333C101.388 67.1672 100.65 67.1701 99.8705 67.5419C99.1002 67.9092 98.6339 68.4801 98.4714 69.2548C98.309 70.0294 98.471 70.927 98.9576 71.9476C99.4442 72.9682 100.04 73.6593 100.744 74.0208C101.448 74.3823 102.185 74.3794 102.955 74.0122ZM111.51 74.8083L106.015 63.2831L107.401 62.6221L107.821 63.5031L108.226 63.3103C108.263 62.8672 108.433 62.4553 108.736 62.0746C109.048 61.6892 109.445 61.3818 109.927 61.1522C110.639 60.8125 111.35 60.7042 112.058 60.8272C112.762 60.9406 113.415 61.2678 114.015 61.8086C114.625 62.3449 115.153 63.08 115.598 64.014C116.044 64.9479 116.285 65.8256 116.322 66.6469C116.364 67.454 116.207 68.1667 115.852 68.7851C115.497 69.4034 114.963 69.8825 114.251 70.2222C113.769 70.4517 113.281 70.5666 112.784 70.5668C112.298 70.5624 111.873 70.44 111.51 70.1994L111.106 70.3922L112.896 74.1472L111.51 74.8083ZM113.357 69.0532C114.117 68.6905 114.569 68.1265 114.712 67.361C114.865 66.5909 114.698 65.6956 114.212 64.675C113.725 63.6544 113.135 62.961 112.44 62.595C111.755 62.2243 111.033 62.2202 110.272 62.5829C109.511 62.9455 109.055 63.5119 108.902 64.2819C108.749 65.052 108.916 65.9473 109.402 66.9679C109.889 67.9885 110.48 68.6819 111.174 69.048C111.869 69.4141 112.596 69.4158 113.357 69.0532ZM125.762 64.4681L119.867 62.1031L121.775 55.7695L123.537 54.9294L121.637 61.206L127.611 63.5867L125.762 64.4681ZM120.909 66.7817L116.792 58.145L118.178 57.484L122.296 66.1206L120.909 66.7817Z" fill="#303030"/>
<path d="M725.55 84.1265L723.897 83L706.999 107.789L708.652 108.915L725.55 84.1265Z" fill="#303030"/>
<path d="M815.426 88.2614L693.196 4.81263C688.178 1.3872 681.334 2.67771 677.909 7.69505L663.813 28.3421C660.387 33.3594 661.678 40.2037 666.695 43.6291L788.926 127.078C793.943 130.503 800.787 129.213 804.213 124.195L818.309 103.548C821.734 98.5311 820.444 91.6868 815.426 88.2614Z" fill="#E7B9E2" stroke="#303030" stroke-width="2"/>
<path d="M711.609 53.7078L718.826 43.1365L724.904 47.2864L724.065 48.5153L719.295 45.2585L716.95 48.6942L721.059 51.4999L720.265 52.6627L716.156 49.857L713.756 53.372L718.394 56.5385L717.555 57.7674L711.609 53.7078ZM718.555 62.3246L725.754 51.7797L727.022 52.6458L726.472 53.4518L726.842 53.7044C727.244 53.5136 727.685 53.4534 728.167 53.5238C728.657 53.6002 729.122 53.7888 729.563 54.0895C730.215 54.5345 730.666 55.0943 730.916 55.7686C731.172 56.4342 731.217 57.1625 731.051 57.9535C730.894 58.7506 730.524 59.5764 729.941 60.4309C729.358 61.2854 728.72 61.9352 728.029 62.3803C727.353 62.8225 726.658 63.0456 725.945 63.0496C725.232 63.0535 724.549 62.833 723.897 62.3879C723.457 62.0872 723.112 61.7225 722.862 61.2937C722.621 60.8709 722.513 60.4422 722.539 60.0076L722.169 59.755L719.823 63.1906L718.555 62.3246ZM724.458 61.0273C725.154 61.5024 725.869 61.6094 726.603 61.3483C727.345 61.0931 728.035 60.4987 728.672 59.5649C729.31 58.6311 729.612 57.772 729.58 56.9876C729.556 56.2092 729.196 55.5825 728.5 55.1073C727.804 54.6322 727.085 54.5222 726.342 54.7773C725.6 55.0325 724.91 55.6269 724.272 56.5607C723.635 57.4945 723.332 58.3536 723.365 59.138C723.398 59.9224 723.762 60.5521 724.458 61.0273ZM733.615 61.8933L738.505 65.2313L737.69 65.4886C738.315 64.5724 738.626 63.7578 738.622 63.0447C738.624 62.3228 738.303 61.7424 737.66 61.3033C736.964 60.8282 736.245 60.7182 735.503 60.9733C734.775 61.2256 734.096 61.8143 733.464 62.7393C732.784 63.7347 732.458 64.6291 732.485 65.4223C732.518 66.2067 732.895 66.8454 733.617 67.3386C734.102 67.6694 734.605 67.8317 735.125 67.8257C735.652 67.8108 736.191 67.6362 736.742 67.3021L737.931 68.114C737.426 68.57 736.884 68.8909 736.305 69.0768C735.726 69.2628 735.14 69.3081 734.546 69.2128C733.968 69.1147 733.396 68.8732 732.833 68.4882C732.101 67.989 731.587 67.3991 731.29 66.7183C730.999 66.0287 730.926 65.2749 731.071 64.457C731.231 63.6362 731.614 62.781 732.222 61.8913C732.799 61.0456 733.436 60.415 734.133 59.9996C734.83 59.5842 735.545 59.388 736.279 59.4109C737.027 59.4309 737.749 59.6786 738.445 60.1537C739.115 60.6108 739.578 61.1529 739.834 61.78C740.09 62.407 740.138 63.1043 739.975 63.8718C739.819 64.6304 739.452 65.4326 738.875 66.2783C738.809 66.3752 738.735 66.4735 738.654 66.5732C738.588 66.6701 738.52 66.7596 738.451 66.8416L732.849 63.0165L733.615 61.8933ZM739.221 72.559L744.616 64.6569L747.946 66.9303C748.782 67.5017 749.293 68.1346 749.478 68.8289C749.677 69.5204 749.54 70.2142 749.064 70.9101C748.818 71.2713 748.497 71.5237 748.102 71.6673C747.716 71.8169 747.312 71.8316 746.89 71.7116L746.782 71.8702C747.079 72.2669 747.227 72.7035 747.224 73.1798C747.228 73.6473 747.086 74.0925 746.797 74.5153C746.322 75.2112 745.718 75.5936 744.987 75.6625C744.261 75.7225 743.48 75.4669 742.643 74.8955L739.221 72.559ZM741.292 72.249L743.446 73.7195C743.895 74.0262 744.305 74.1639 744.675 74.1324C745.045 74.101 745.354 73.9047 745.6 73.5435C745.847 73.1823 745.918 72.8237 745.812 72.4675C745.706 72.1113 745.429 71.7798 744.98 71.4731L742.826 70.0026L741.292 72.249ZM743.575 68.9058L745.649 70.3222C746.09 70.6229 746.495 70.7575 746.865 70.7261C747.244 70.7007 747.554 70.5118 747.795 70.1594C748.029 69.8159 748.089 69.463 747.975 69.1008C747.869 68.7446 747.596 68.4161 747.156 68.1154L745.081 66.699L743.575 68.9058ZM756.48 77.1934L755.704 78.3298L752.98 77.0128C752.527 76.8066 752.124 76.7444 751.771 76.8263C751.424 76.8994 751.133 77.1078 750.899 77.4513C750.67 77.7861 750.603 78.1404 750.696 78.5142C750.804 78.8852 751.061 79.209 751.466 79.4857C751.872 79.7624 752.308 79.9181 752.775 79.9528C753.242 79.9875 753.684 79.9081 754.1 79.7145C754.525 79.5268 754.876 79.2304 755.153 78.8252L756.542 76.7902C756.915 76.244 757.044 75.7055 756.928 75.1746C756.822 74.6498 756.482 74.1919 755.909 73.801C755.504 73.5243 755.099 73.3512 754.695 73.2817C754.296 73.2033 753.908 73.2227 753.531 73.3398C753.163 73.463 752.822 73.6885 752.508 74.0164L751.292 73.1864C751.745 72.6175 752.269 72.2194 752.863 71.9922C753.463 71.7562 754.092 71.6951 754.751 71.8089C755.415 71.9139 756.082 72.1949 756.752 72.652C757.712 73.3076 758.284 74.0594 758.467 74.9076C758.664 75.753 758.454 76.6293 757.834 77.5367L754.235 82.8091L753.006 81.9701L753.529 81.2037L753.159 80.9511C752.737 81.1151 752.288 81.1575 751.813 81.0783C751.346 81.0051 750.866 80.8001 750.373 80.4633C749.888 80.1325 749.529 79.7513 749.294 79.3197C749.074 78.8853 748.981 78.4346 749.016 77.9675C749.051 77.5005 749.221 77.0423 749.528 76.593C749.973 75.9411 750.54 75.5465 751.227 75.4091C751.924 75.2777 752.698 75.412 753.548 75.8119L756.48 77.1934ZM757.488 85.0302L762.883 77.1282L764.151 77.9942L761.824 81.4035L765.365 83.8212L767.693 80.412L768.961 81.278L763.566 89.1801L762.298 88.314L764.553 85.0105L761.012 82.5927L758.756 85.8963L757.488 85.0302Z" fill="#303030"/>
<path d="M269.228 225.166L277.201 224.509L278.251 237.266L276.657 237.397L275.731 226.155L270.947 226.549L271.873 237.791L270.278 237.923L269.228 225.166ZM281.882 240.178L280.834 227.453L282.364 227.327L282.445 228.3L282.891 228.263C283.083 227.862 283.388 227.537 283.806 227.289C284.235 227.039 284.715 226.893 285.247 226.849C286.034 226.784 286.736 226.935 287.355 227.301C287.973 227.657 288.467 228.194 288.837 228.913C289.217 229.631 289.449 230.506 289.534 231.537C289.619 232.568 289.533 233.474 289.276 234.255C289.029 235.025 288.63 235.635 288.079 236.088C287.527 236.54 286.858 236.798 286.072 236.863C285.54 236.907 285.042 236.841 284.578 236.665C284.125 236.488 283.771 236.223 283.518 235.869L283.071 235.906L283.412 240.052L281.882 240.178ZM285.651 235.453C286.49 235.384 287.113 235.016 287.518 234.352C287.935 233.686 288.096 232.79 288.003 231.663C287.911 230.536 287.604 229.678 287.085 229.089C286.576 228.5 285.902 228.24 285.062 228.309C284.222 228.378 283.594 228.745 283.178 229.411C282.762 230.077 282.601 230.973 282.693 232.1C282.786 233.227 283.092 234.085 283.612 234.673C284.131 235.262 284.811 235.522 285.651 235.453ZM298.375 229.685L298.488 231.056L295.543 231.748C295.061 231.874 294.709 232.079 294.486 232.365C294.263 232.64 294.168 232.985 294.202 233.4C294.235 233.804 294.406 234.122 294.714 234.353C295.032 234.573 295.435 234.663 295.924 234.623C296.413 234.582 296.85 234.429 297.235 234.162C297.619 233.894 297.913 233.554 298.114 233.142C298.326 232.728 298.412 232.277 298.372 231.788L298.17 229.332C298.115 228.673 297.876 228.174 297.452 227.834C297.039 227.494 296.487 227.352 295.796 227.409C295.307 227.449 294.883 227.57 294.525 227.77C294.166 227.96 293.877 228.22 293.658 228.548C293.449 228.876 293.326 229.266 293.289 229.718L291.822 229.839C291.815 229.112 291.971 228.473 292.29 227.922C292.608 227.361 293.058 226.917 293.641 226.591C294.224 226.254 294.919 226.052 295.727 225.986C296.885 225.89 297.803 226.114 298.479 226.658C299.165 227.19 299.553 228.004 299.643 229.099L300.167 235.461L298.684 235.583L298.608 234.658L298.162 234.695C297.937 235.088 297.615 235.404 297.196 235.642C296.788 235.879 296.286 236.022 295.69 236.071C295.106 236.119 294.586 236.049 294.132 235.862C293.687 235.663 293.332 235.371 293.064 234.987C292.797 234.602 292.641 234.138 292.597 233.596C292.532 232.81 292.723 232.146 293.171 231.606C293.63 231.066 294.315 230.683 295.228 230.458L298.375 229.685ZM305.417 235.029L304.631 225.493L310.978 224.97L311.096 226.406L306.28 226.802L306.947 234.903L305.417 235.029ZM320.706 227.846L320.819 229.217L317.874 229.909C317.392 230.034 317.039 230.24 316.817 230.526C316.593 230.801 316.499 231.146 316.533 231.561C316.566 231.965 316.737 232.282 317.045 232.514C317.362 232.734 317.766 232.824 318.255 232.784C318.744 232.743 319.181 232.59 319.565 232.322C319.95 232.055 320.243 231.715 320.445 231.303C320.657 230.889 320.743 230.438 320.702 229.949L320.5 227.493C320.446 226.834 320.207 226.335 319.783 225.995C319.369 225.655 318.817 225.513 318.126 225.57C317.637 225.61 317.214 225.731 316.856 225.931C316.497 226.121 316.208 226.381 315.989 226.709C315.78 227.037 315.657 227.427 315.619 227.879L314.152 228C314.146 227.273 314.302 226.634 314.621 226.083C314.938 225.522 315.389 225.078 315.972 224.752C316.554 224.415 317.249 224.213 318.057 224.147C319.216 224.051 320.133 224.275 320.81 224.819C321.496 225.351 321.884 226.165 321.974 227.26L322.498 233.622L321.015 233.744L320.939 232.819L320.492 232.856C320.268 233.249 319.946 233.565 319.527 233.803C319.118 234.04 318.616 234.183 318.021 234.232C317.436 234.28 316.917 234.21 316.462 234.023C316.018 233.824 315.662 233.532 315.395 233.148C315.128 232.763 314.972 232.299 314.927 231.757C314.863 230.971 315.054 230.307 315.502 229.767C315.96 229.227 316.646 228.844 317.559 228.619L320.706 227.846Z" fill="#303030"/>
<path d="M690.08 230.476L697.742 232.779L694.058 245.037L692.526 244.577L695.772 233.774L691.175 232.392L687.929 243.195L686.396 242.735L690.08 230.476ZM696.972 245.913L701.032 242.355L699.557 236.699L701.274 237.215L702.426 241.554L702.413 241.984L702.566 242.03L702.793 241.664L706.254 238.711L707.862 239.195L703.49 242.96L704.941 248.307L703.194 247.782L702.103 243.796L702.095 243.376L701.957 243.334L701.735 243.685L698.612 246.406L696.972 245.913ZM710.225 239.905L711.804 240.379L712.183 248.178L713.179 248.477L712.376 249.706L710.69 249.199L710.225 239.905ZM718.699 242.451L712.013 251.969C711.627 252.511 711.192 252.886 710.705 253.097C710.219 253.307 709.725 253.337 709.225 253.186C708.489 252.965 707.979 252.589 707.693 252.058C707.404 251.537 707.347 250.874 707.522 250.069L708.87 250.474C708.872 250.875 708.925 251.181 709.029 251.39C709.13 251.61 709.309 251.758 709.564 251.835C709.799 251.905 710.011 251.886 710.2 251.775C710.399 251.668 710.611 251.464 710.835 251.164L717.228 242.009L718.699 242.451ZM724.606 254.216L721.829 248.503L727.497 245.095L729.367 245.656L723.743 249.028L726.567 254.806L724.606 254.216ZM719.458 252.669L722.211 243.506L723.682 243.948L720.929 253.111L719.458 252.669ZM732.057 250.558L737.727 252.262L737.028 252.753C737.347 251.691 737.397 250.82 737.178 250.142C736.961 249.453 736.48 248.997 735.735 248.773C734.928 248.53 734.209 248.643 733.578 249.11C732.961 249.571 732.491 250.337 732.169 251.41C731.822 252.564 731.781 253.516 732.046 254.264C732.315 255.001 732.868 255.496 733.705 255.748C734.267 255.917 734.796 255.919 735.29 255.756C735.788 255.583 736.249 255.253 736.673 254.768L738.052 255.183C737.708 255.77 737.289 256.24 736.793 256.592C736.297 256.944 735.752 257.165 735.158 257.253C734.576 257.335 733.959 257.277 733.305 257.081C732.457 256.826 731.788 256.419 731.299 255.86C730.813 255.291 730.516 254.594 730.407 253.771C730.311 252.94 730.418 252.009 730.728 250.977C731.023 249.997 731.44 249.203 731.978 248.596C732.517 247.99 733.14 247.586 733.846 247.386C734.565 247.179 735.328 247.197 736.135 247.44C736.912 247.673 737.517 248.05 737.951 248.57C738.385 249.09 738.64 249.74 738.718 250.521C738.798 251.291 738.691 252.167 738.396 253.148C738.362 253.26 738.322 253.376 738.275 253.495C738.241 253.608 738.204 253.714 738.163 253.813L731.666 251.86L732.057 250.558ZM743.138 259.785L745.477 252.001L742.412 251.08L742.827 249.701L750.427 251.985L750.012 253.364L746.948 252.443L744.609 260.227L743.138 259.785Z" fill="#303030"/>
<path d="M570.285 131.33L568.309 131.024L563.714 160.67L565.691 160.976L570.285 131.33Z" fill="#303030"/>
<path d="M712.307 267.559L710.387 267L701.999 295.804L703.92 296.363L712.307 267.559Z" fill="#303030"/>
<path d="M415.543 164.305L413.566 164L408.998 193.65L410.975 193.955L415.543 164.305Z" fill="#303030"/>
<path d="M297.99 252L296 252.195L298.927 282.052L300.918 281.857L297.99 252Z" fill="#303030"/>
<path d="M152.99 229L151 229.195L153.927 259.052L155.918 258.857L152.99 229Z" fill="#303030"/>
<path d="M99.7962 95.0001L98 95.8796L111.194 122.823L112.99 121.943L99.7962 95.0001Z" fill="#303030"/>
</g>
<defs>
<clipPath id="clip0_72_711">
<rect width="824" height="297" fill="white"/>
</clipPath>
</defs>
</svg>
