<svg width="13" height="21" viewBox="0 0 13 21" fill="none" xmlns="http://www.w3.org/2000/svg">
<path fill-rule="evenodd" clip-rule="evenodd" d="M4.69688 1.78953C5.71027 0.775972 7.08478 0.206468 8.51805 0.206299H11.2975C11.5022 0.206299 11.6986 0.28764 11.8434 0.43243C11.9882 0.577219 12.0695 0.773595 12.0695 0.978358V4.68424C12.0695 4.889 11.9882 5.08538 11.8434 5.23017C11.6986 5.37496 11.5022 5.4563 11.2975 5.4563H8.51805C8.49777 5.4563 8.4777 5.46029 8.45896 5.46805C8.44023 5.47581 8.42321 5.48719 8.40887 5.50152C8.39453 5.51586 8.38315 5.53289 8.37539 5.55162C8.36763 5.57035 8.36364 5.59043 8.36364 5.61071V7.61806H11.2975C11.4148 7.618 11.5307 7.6447 11.6362 7.69612C11.7417 7.74755 11.8341 7.82236 11.9063 7.91486C11.9786 8.00736 12.0288 8.11511 12.0532 8.22993C12.0775 8.34475 12.0754 8.46361 12.0469 8.57748L11.1204 12.2834C11.0786 12.4504 10.9821 12.5988 10.8463 12.7047C10.7106 12.8107 10.5432 12.8682 10.371 12.8681H8.36364V19.5078C8.36364 19.7125 8.2823 19.9089 8.13751 20.0537C7.99272 20.1985 7.79634 20.2798 7.59158 20.2798H3.8857C3.68094 20.2798 3.48456 20.1985 3.33977 20.0537C3.19498 19.9089 3.11364 19.7125 3.11364 19.5078V12.8681H1.10629C0.901525 12.8681 0.705148 12.7867 0.560359 12.6419C0.41557 12.4971 0.334229 12.3008 0.334229 12.096V8.39012C0.334229 8.28873 0.354198 8.18834 0.392998 8.09467C0.431798 8.001 0.488667 7.91589 0.560359 7.84419C0.632051 7.7725 0.717163 7.71563 0.810833 7.67683C0.904504 7.63803 1.0049 7.61806 1.10629 7.61806H3.11364V5.61071C3.11381 4.17744 3.68331 2.80293 4.69688 1.78953ZM8.51805 1.75042C7.49424 1.75042 6.51236 2.15712 5.78841 2.88107C5.06447 3.60502 4.65776 4.5869 4.65776 5.61071V8.39012C4.65776 8.59488 4.57642 8.79126 4.43163 8.93605C4.28684 9.08084 4.09046 9.16218 3.8857 9.16218H1.87835V11.3239H3.8857C4.09046 11.3239 4.28684 11.4053 4.43163 11.5501C4.57642 11.6949 4.65776 11.8912 4.65776 12.096V18.7357H6.81952V12.096C6.81952 11.8912 6.90086 11.6949 7.04565 11.5501C7.19044 11.4053 7.38682 11.3239 7.59158 11.3239H9.76776L10.3082 9.16218H7.59158C7.38682 9.16218 7.19044 9.08084 7.04565 8.93605C6.90086 8.79126 6.81952 8.59488 6.81952 8.39012V5.61071C6.81952 5.16023 6.99847 4.72821 7.31701 4.40967C7.63555 4.09113 8.06757 3.91218 8.51805 3.91218H10.5254V1.75042H8.51805Z" fill="#303030"/>
</svg>
