<svg width="156" height="46" viewBox="0 0 156 46" fill="none" xmlns="http://www.w3.org/2000/svg">
<path fill-rule="evenodd" clip-rule="evenodd" d="M97.1347 29.4208C95.5324 27.6771 94.7313 25.4151 94.7313 22.6347C94.7313 19.8543 95.5324 17.6041 97.1347 15.884C98.7605 14.1404 100.787 13.2686 103.214 13.2686C104.745 13.2686 106.147 13.7163 107.42 14.6116C107.962 14.9886 108.445 15.4246 108.869 15.9194H109.046V0H112.757V31.6474H109.046V29.3501H108.869C108.468 29.8449 107.985 30.2926 107.42 30.6932C106.171 31.565 104.769 32.0009 103.214 32.0009C100.787 32.0009 98.7605 31.1408 97.1347 29.4208ZM100.033 18.1814C99.0904 19.2181 98.6191 20.7026 98.6191 22.6347C98.6191 24.5669 99.0904 26.0513 100.033 27.0881C100.975 28.1248 102.271 28.6432 103.921 28.6432C105.476 28.6432 106.713 28.1248 107.632 27.0881C108.574 26.0278 109.046 24.5433 109.046 22.6347C109.046 20.7262 108.574 19.2535 107.632 18.2167C106.713 17.1564 105.476 16.6262 103.921 16.6262C102.271 16.6262 100.975 17.1446 100.033 18.1814ZM44.7527 22.6347C44.7527 25.4151 45.5538 27.6771 47.1561 29.4208C48.7819 31.1408 50.8083 32.0009 53.2352 32.0009C54.7904 32.0009 56.1924 31.565 57.4412 30.6932C58.0067 30.2926 58.4897 29.8449 58.8903 29.3501H59.067V31.6474H62.7781V0.00262878H59.067V15.9194H58.8903C58.4662 15.4246 57.9831 14.9886 57.4412 14.6116C56.1688 13.7163 54.7668 13.2686 53.2352 13.2686C50.8083 13.2686 48.7819 14.1404 47.1561 15.884C45.5538 17.6041 44.7527 19.8543 44.7527 22.6347ZM48.6405 22.6347C48.6405 20.7026 49.1118 19.2181 50.0543 18.1814C50.9968 17.1446 52.2927 16.6262 53.9421 16.6262C55.4973 16.6262 56.7343 17.1564 57.6532 18.2167C58.5957 19.2535 59.067 20.7262 59.067 22.6347C59.067 24.5433 58.5957 26.0278 57.6532 27.0881C56.7343 28.1248 55.4973 28.6432 53.9421 28.6432C52.2927 28.6432 50.9968 28.1248 50.0543 27.0881C49.1118 26.0513 48.6405 24.5669 48.6405 22.6347ZM23.9053 22.6347C23.9053 25.2737 24.8007 27.5004 26.5914 29.3147C28.4057 31.1055 30.6324 32.0009 33.2714 32.0009C35.9104 32.0009 38.1253 31.1055 39.9161 29.3147C41.7304 27.5004 42.6376 25.2737 42.6376 22.6347C42.6376 19.9957 41.7304 17.7808 39.9161 15.9901C38.1253 14.1757 35.9104 13.2686 33.2714 13.2686C30.6324 13.2686 28.4057 14.1757 26.5914 15.9901C24.8007 17.7808 23.9053 19.9957 23.9053 22.6347ZM27.7931 22.6347C27.7931 20.8204 28.2997 19.3713 29.3129 18.2874C30.3261 17.18 31.6456 16.6262 33.2714 16.6262C34.8972 16.6262 36.2168 17.18 37.23 18.2874C38.2431 19.3713 38.7497 20.8204 38.7497 22.6347C38.7497 24.4491 38.2431 25.9099 37.23 27.0174C36.2168 28.1013 34.8972 28.6432 33.2714 28.6432C31.6456 28.6432 30.3261 28.1013 29.3129 27.0174C28.2997 25.9099 27.7931 24.4491 27.7931 22.6347ZM67.0056 31.9107V4.51521H70.7167V31.9107H67.0056ZM73.8839 22.6347C73.8839 25.2737 74.7792 27.5004 76.57 29.3147C78.3843 31.1055 80.611 32.0009 83.25 32.0009C85.889 32.0009 88.1039 31.1055 89.8947 29.3147C91.709 27.5004 92.6162 25.2737 92.6162 22.6347C92.6162 19.9957 91.709 17.7808 89.8947 15.9901C88.1039 14.1757 85.889 13.2686 83.25 13.2686C80.611 13.2686 78.3843 14.1757 76.57 15.9901C74.7792 17.7808 73.8839 19.9957 73.8839 22.6347ZM77.7717 22.6347C77.7717 20.8204 78.2783 19.3713 79.2915 18.2874C80.3047 17.18 81.6242 16.6262 83.25 16.6262C84.8758 16.6262 86.1954 17.18 87.2085 18.2874C88.2217 19.3713 88.7283 20.8204 88.7283 22.6347C88.7283 24.4491 88.2217 25.9099 87.2085 27.0174C86.1954 28.1013 84.8758 28.6432 83.25 28.6432C81.6242 28.6432 80.3047 28.1013 79.2915 27.0174C78.2783 25.9099 77.7717 24.4491 77.7717 22.6347ZM116.984 4.5092V31.6474H120.695V24.0485H123.523L129.001 31.6474H133.596L126.527 21.9279L133.066 13.622H128.824L123.346 20.6908H120.695V4.5092H116.984ZM135.999 29.4279C134.397 27.6842 133.596 25.4222 133.596 22.6418C133.596 19.8614 134.397 17.6112 135.999 15.8911C137.625 14.1475 139.651 13.2756 142.078 13.2756C143.61 13.2756 145.012 13.7233 146.284 14.6187C146.826 14.9957 147.309 15.4316 147.733 15.9264H147.91V13.6291H151.621V27.1266H149.237C148.797 28.3462 147.853 29.6706 146.607 30.5814C145.334 31.5239 144.014 32.008 142.078 32.008C139.651 32.008 137.625 31.1479 135.999 29.4279ZM138.897 18.1885C137.955 19.2252 137.484 20.7097 137.484 22.6418C137.484 24.5739 137.955 26.0584 138.897 27.0952C139.84 28.1319 141.136 28.6503 142.785 28.6503C144.34 28.6503 145.577 28.1319 146.496 27.0952C147.439 26.0348 147.91 24.5504 147.91 22.6418C147.91 20.7332 147.439 19.2606 146.496 18.2238C145.577 17.1635 144.34 16.6333 142.785 16.6333C141.136 16.6333 139.84 17.1517 138.897 18.1885ZM21.7985 22.6222C21.7985 19.8418 20.9974 17.5798 19.3951 15.8362C17.7693 14.1161 15.7429 13.256 13.316 13.256C11.3804 13.256 10.0602 13.7401 8.78784 14.6826C7.54147 15.5934 6.59779 16.9178 6.15694 18.1374H3.77541V13.6095H0V18.14H3.77309L3.77307 45.2637H7.4842L7.48422 29.3376H7.66093C8.08506 29.8324 8.56811 30.2683 9.11005 30.6453C10.3824 31.5407 11.7844 31.9884 13.316 31.9884C15.7429 31.9884 17.7693 31.1165 19.3951 29.3729C20.9974 27.6528 21.7985 25.4026 21.7985 22.6222ZM17.9107 22.6222C17.9107 24.5543 17.4394 26.0388 16.4969 27.0755C15.5544 28.1123 14.2585 28.6307 12.6091 28.6307C11.054 28.6307 9.81693 28.1005 8.89798 27.0402C7.95547 26.0034 7.48422 24.5308 7.48422 22.6222C7.48422 20.7136 7.95547 19.2292 8.89798 18.1689C9.81693 17.1321 11.054 16.6137 12.6091 16.6137C14.2585 16.6137 15.5544 17.1321 16.4969 18.1689C17.4394 19.2056 17.9107 20.6901 17.9107 22.6222ZM155.396 27.1308V31.6613H151.62V27.1308H155.396Z" fill="white"/>
</svg>
