<svg width="23" height="20" viewBox="0 0 23 20" fill="none" xmlns="http://www.w3.org/2000/svg">
<path fill-rule="evenodd" clip-rule="evenodd" d="M20.425 0.79919C20.6927 0.686513 20.9858 0.647652 21.2736 0.68665C21.5614 0.725648 21.8335 0.841081 22.0616 1.02093C22.2897 1.20078 22.4654 1.43848 22.5704 1.70928C22.6755 1.98008 22.706 2.27408 22.6589 2.56069L20.2019 17.4641C19.9635 18.9017 18.3862 19.7261 17.0678 19.01C15.965 18.4109 14.327 17.4879 12.8536 16.5249C12.117 16.0428 9.86037 14.499 10.1377 13.4005C10.376 12.4613 14.1677 8.93177 16.3344 6.83336C17.1848 6.00894 16.797 5.53336 15.7927 6.29169C13.2978 8.17452 9.29487 11.0378 7.97103 11.8438C6.8032 12.5544 6.19437 12.6758 5.46637 12.5544C4.1382 12.3334 2.90645 11.9911 1.90112 11.574C0.542617 11.0107 0.6087 9.14302 1.90003 8.59919L20.425 0.79919Z" fill="#303030"/>
</svg>
