<svg width="998" height="253" viewBox="0 0 998 253" fill="none" xmlns="http://www.w3.org/2000/svg">
<path d="M99.9814 115V0H173.581V15.7326H116.701V47.9965H163.981V63.7292H116.701V99.2673H173.581V115H99.9814Z" fill="#303030"/>
<path d="M192.794 115V0H239.354C240.474 0 241.861 0.0532401 243.514 0.15972C245.167 0.212963 246.741 0.372687 248.234 0.63889C254.634 1.65046 259.967 3.83333 264.234 7.1875C268.554 10.5417 271.781 14.7743 273.914 19.8854C276.047 24.9965 277.114 30.64 277.114 36.816C277.114 45.9734 274.767 53.8796 270.074 60.5347C265.381 67.1366 258.341 71.2627 248.954 72.9132L242.154 73.7118H209.514V115H192.794ZM260.154 115L237.434 68.2014L254.314 63.8889L279.274 115H260.154ZM209.514 57.8993H238.714C239.781 57.8993 240.954 57.8461 242.234 57.7396C243.567 57.6331 244.821 57.4468 245.994 57.1806C249.407 56.3819 252.154 54.9178 254.234 52.7882C256.314 50.6053 257.807 48.103 258.714 45.2812C259.621 42.4595 260.074 39.6377 260.074 36.816C260.074 33.9942 259.621 31.1991 258.714 28.4305C257.807 25.6088 256.314 23.1331 254.234 21.0035C252.154 18.8206 249.407 17.3299 245.994 16.5312C244.821 16.2118 243.567 15.9988 242.234 15.8924C240.954 15.7859 239.781 15.7326 238.714 15.7326H209.514V57.8993Z" fill="#303030"/>
<path d="M296.856 115V0H370.456V15.7326H313.576V47.9965H360.856V63.7292H313.576V99.2673H370.456V115H296.856Z" fill="#303030"/>
<path d="M500.138 115V0H573.738V15.7326H516.858V47.9965H564.138V63.7292H516.858V99.2673H573.738V115H500.138Z" fill="#303030"/>
<path d="M594.55 115V0H611.27V99.2673H663.43V115H594.55Z" fill="#303030"/>
<path d="M669.013 115L706.453 0H730.533L767.973 115H750.613L716.133 10.0625H720.453L686.373 115H669.013ZM688.453 89.0451V73.3924H748.613V89.0451H688.453Z" fill="#303030"/>
<path d="M782.325 115V0H799.285L856.005 85.4514V0H872.965V115H856.005L799.285 29.4687V115H782.325Z" fill="#303030"/>
<rect y="0.1996" width="17" height="114.8" fill="#303030"/>
<rect x="17" y="0.1996" width="49" height="16.9705" fill="#303030"/>
<rect x="66" y="16.1718" width="17" height="16.9705" fill="#303030"/>
<rect x="66" y="33.1423" width="17" height="16.9705" fill="#303030"/>
<rect x="17" y="50.1128" width="49" height="16.9705" fill="#303030"/>
<rect x="390" y="0.1996" width="17" height="114.8" fill="#303030"/>
<rect x="407" y="0.1996" width="40" height="16.9705" fill="#303030"/>
<rect x="407" y="98.0295" width="40" height="16.9705" fill="#303030"/>
<rect x="447" y="17.1701" width="17" height="16.9705" fill="#303030"/>
<rect x="464" y="34.1406" width="17" height="46.9184" fill="#303030"/>
<rect x="447" y="81.059" width="17" height="16.9705" fill="#303030"/>
<rect x="924" y="0.1996" width="40" height="16.9705" fill="#303030"/>
<rect x="924" y="98.0295" width="40" height="16.9705" fill="#303030"/>
<rect x="964" y="17.1701" width="17" height="16.9705" fill="#303030"/>
<rect x="907" y="17.1701" width="17" height="16.9705" fill="#303030"/>
<rect x="981" y="34.1406" width="17" height="46.9184" fill="#303030"/>
<rect x="890" y="34.1406" width="17" height="46.9184" fill="#303030"/>
<rect x="964" y="81.059" width="17" height="16.9705" fill="#303030"/>
<rect x="907" y="81.059" width="17" height="16.9705" fill="#303030"/>
<path d="M193.663 253C183.584 253 174.999 250.598 167.907 245.793C160.814 240.938 155.379 234.191 151.599 225.553C147.866 216.916 146 206.898 146 195.5C146 184.102 147.866 174.084 151.599 165.447C155.379 156.809 160.814 150.088 167.907 145.283C174.999 140.428 183.584 138 193.663 138C205.281 138 214.893 141.22 222.498 147.66C230.151 154.1 235.47 162.763 238.456 173.65L223.618 178.02C221.659 170.302 218.159 164.246 213.12 159.85C208.127 155.454 201.642 153.257 193.663 153.257C186.524 153.257 180.575 155.02 175.815 158.547C171.056 162.073 167.463 167.006 165.037 173.343C162.657 179.681 161.468 187.067 161.468 195.5C161.421 203.933 162.587 211.319 164.967 217.657C167.393 223.994 170.986 228.927 175.745 232.453C180.551 235.98 186.524 237.743 193.663 237.743C201.642 237.743 208.127 235.546 213.12 231.15C218.159 226.703 221.659 220.647 223.618 212.98L238.456 217.35C235.47 228.237 230.151 236.9 222.498 243.34C214.893 249.78 205.281 253 193.663 253Z" fill="#303030"/>
<path d="M295.913 253C285.834 253 277.249 250.598 270.157 245.793C263.065 240.938 257.629 234.191 253.849 225.553C250.117 216.916 248.25 206.898 248.25 195.5C248.25 184.102 250.117 174.084 253.849 165.447C257.629 156.809 263.065 150.088 270.157 145.283C277.249 140.428 285.834 138 295.913 138C305.945 138 314.507 140.428 321.599 145.283C328.738 150.088 334.174 156.809 337.907 165.447C341.639 174.084 343.506 184.102 343.506 195.5C343.506 206.898 341.639 216.916 337.907 225.553C334.174 234.191 328.738 240.938 321.599 245.793C314.507 250.598 305.945 253 295.913 253ZM295.913 237.743C303.052 237.846 308.978 236.133 313.69 232.607C318.449 229.029 322.019 224.071 324.399 217.733C326.778 211.344 327.968 203.933 327.968 195.5C327.968 187.067 326.778 179.707 324.399 173.42C322.019 167.082 318.449 162.15 313.69 158.623C308.978 155.097 303.052 153.308 295.913 153.257C288.774 153.154 282.825 154.867 278.066 158.393C273.353 161.92 269.807 166.878 267.427 173.267C265.048 179.656 263.834 187.067 263.788 195.5C263.741 203.933 264.908 211.319 267.287 217.657C269.667 223.943 273.236 228.85 277.996 232.377C282.802 235.903 288.774 237.692 295.913 237.743Z" fill="#303030"/>
<path d="M456.299 250.7V140.3H516V156.323H470.927V187.45H507.601V203.55H470.927V250.7H456.299Z" fill="#303030"/>
<rect x="371.3" y="167.462" width="16.9974" height="18.619" fill="#303030"/>
<rect x="388.298" y="186.081" width="16.9974" height="18.619" fill="#303030"/>
<rect x="405.295" y="204.7" width="16.9974" height="18.619" fill="#303030"/>
<rect x="422.292" y="140.081" width="16.9974" height="110.619" fill="#303030"/>
<rect x="354.303" y="140.081" width="16.9974" height="110.619" fill="#303030"/>
</svg>
