<svg width="42" height="36" viewBox="0 0 42 36" fill="none" xmlns="http://www.w3.org/2000/svg">
<path d="M28.9792 4.5629C27.3961 4.56263 25.8762 5.18369 24.7464 6.29251C23.6165 7.40132 22.967 8.9093 22.9375 10.4921L22.8792 13.7733C22.8761 13.9497 22.8356 14.1234 22.7606 14.283C22.6856 14.4426 22.5776 14.5845 22.4438 14.6995C22.31 14.8144 22.1534 14.8997 21.9842 14.9497C21.8151 14.9998 21.6373 15.0135 21.4625 14.99L18.2083 14.5462C13.9313 13.9629 9.83126 11.9942 5.89584 8.71707C4.6521 15.6129 7.08334 20.39 12.9438 24.0754L16.5833 26.3629C16.756 26.4715 16.8994 26.6207 17.0012 26.7974C17.1029 26.9742 17.1599 27.1731 17.167 27.3769C17.1742 27.5807 17.1314 27.7832 17.0424 27.9667C16.9534 28.1502 16.8208 28.3091 16.6563 28.4296L13.3396 30.8546C15.3125 30.9796 17.1854 30.8921 18.7396 30.5837C28.5688 28.6212 35.1042 21.2254 35.1042 9.0254C35.1042 8.02957 32.9938 4.5629 28.9792 4.5629ZM18.7708 10.4171C18.8072 8.40884 19.4352 6.45596 20.5762 4.80295C21.7172 3.14993 23.3204 1.87023 25.1852 1.12408C27.0501 0.377931 29.0936 0.198484 31.0599 0.608208C33.0262 1.01793 34.828 1.99862 36.2396 3.42748C37.7208 3.41707 38.9813 3.79207 41.7979 2.08165C41.1021 5.49832 40.7563 6.98373 39.2708 9.02332C39.2708 24.9421 29.4854 32.6858 19.5542 34.6671C12.7479 36.0254 2.84585 33.7942 0.0125122 30.8296C1.45626 30.7192 7.33126 30.0879 10.7271 27.6004C7.8521 25.7046 -3.58124 18.9754 3.93335 0.887901C7.46043 5.00665 11.0375 7.80873 14.6625 9.29832C17.0729 10.2879 17.6667 10.2671 18.7729 10.4192L18.7708 10.4171Z" fill="#303030"/>
</svg>
